<svg xmlns="http://www.w3.org/2000/svg" xmlns:xlink="http://www.w3.org/1999/xlink" width="1080" zoomAndPan="magnify" viewBox="0 0 810 809.999993" height="1080" preserveAspectRatio="xMidYMid meet" version="1.0"><defs><g/><clipPath id="867a7918bb"><path d="M 112.5 0 L 697.5 0 C 759.632812 0 810 50.367188 810 112.5 L 810 697.5 C 810 759.632812 759.632812 810 697.5 810 L 112.5 810 C 50.367188 810 0 759.632812 0 697.5 L 0 112.5 C 0 50.367188 50.367188 0 112.5 0 Z M 112.5 0 " clip-rule="nonzero"/></clipPath><clipPath id="124bc86e84"><path d="M 93.589844 504.675781 L 716.390625 504.675781 L 716.390625 561.515625 L 93.589844 561.515625 Z M 93.589844 504.675781 " clip-rule="nonzero"/></clipPath><clipPath id="9005da378f"><path d="M 93.589844 618.359375 L 716.390625 618.359375 L 716.390625 675.203125 L 93.589844 675.203125 Z M 93.589844 618.359375 " clip-rule="nonzero"/></clipPath></defs><g clip-path="url(#867a7918bb)"><rect x="-81" width="972" fill="#ffffff" y="-80.999999" height="971.999992" fill-opacity="1"/></g><g fill="#0a0a23" fill-opacity="1"><g transform="translate(105.901141, 446.500119)"><g><path d="M 277.03125 -228.359375 L 266.109375 -228.359375 C 263.078125 -271.117188 238.515625 -292.5 192.421875 -292.5 L 139.65625 -292.5 L 139.65625 -165.578125 L 149.203125 -165.578125 C 161.640625 -165.578125 172.023438 -166.863281 180.359375 -169.4375 C 188.703125 -172.019531 195.828125 -177.859375 201.734375 -186.953125 C 207.648438 -196.054688 211.367188 -209.859375 212.890625 -228.359375 L 222.4375 -228.359375 L 222.4375 -85.515625 L 212.890625 -85.515625 C 210.160156 -104.015625 205.609375 -117.890625 199.234375 -127.140625 C 192.867188 -136.390625 185.664062 -142.226562 177.625 -144.65625 C 169.59375 -147.082031 159.96875 -148.296875 148.75 -148.296875 L 139.65625 -148.296875 L 139.65625 -44.578125 C 139.65625 -34.265625 140.867188 -26.832031 143.296875 -22.28125 C 145.722656 -17.738281 150.191406 -14.632812 156.703125 -12.96875 C 163.222656 -11.300781 174.066406 -10.3125 189.234375 -10 L 189.234375 0 L 4.546875 0 L 4.546875 -10 C 17.585938 -10 27.0625 -11.0625 32.96875 -13.1875 C 38.882812 -15.3125 42.753906 -18.492188 44.578125 -22.734375 C 46.398438 -26.984375 47.3125 -33.660156 47.3125 -42.765625 L 47.3125 -270.203125 C 47.3125 -282.941406 43.972656 -291.207031 37.296875 -295 C 30.628906 -298.789062 19.710938 -300.835938 4.546875 -301.140625 L 4.546875 -311.140625 L 277.03125 -311.140625 Z M 277.03125 -228.359375 "/></g></g></g><g fill="#0a0a23" fill-opacity="1"><g transform="translate(405.214649, 446.500119)"><g><path d="M 292.046875 -229.71875 L 281.125 -229.71875 C 279 -273.082031 258.375 -294.765625 219.25 -294.765625 L 195.609375 -294.765625 L 195.609375 -45.03125 C 195.609375 -34.71875 196.894531 -27.132812 199.46875 -22.28125 C 202.050781 -17.4375 206.070312 -14.253906 211.53125 -12.734375 C 216.988281 -11.222656 225.328125 -10.3125 236.546875 -10 L 236.546875 0 L 61.859375 0 L 61.859375 -10 C 73.691406 -10.3125 82.410156 -11.222656 88.015625 -12.734375 C 93.628906 -14.253906 97.570312 -17.363281 99.84375 -22.0625 C 102.125 -26.757812 103.265625 -34.265625 103.265625 -44.578125 L 103.265625 -294.765625 L 80.515625 -294.765625 C 58.984375 -294.765625 43.515625 -289.078125 34.109375 -277.703125 C 24.710938 -266.335938 19.253906 -250.34375 17.734375 -229.71875 L 6.828125 -229.71875 L 6.828125 -311.140625 L 292.046875 -311.140625 Z M 292.046875 -229.71875 "/></g></g></g><g clip-path="url(#124bc86e84)"><path fill="#0a0a23" d="M 716.390625 504.675781 L 716.390625 561.515625 L 93.558594 561.515625 L 93.558594 504.675781 Z M 716.390625 504.675781 " fill-opacity="1" fill-rule="nonzero"/></g><g clip-path="url(#9005da378f)"><path fill="#0a0a23" d="M 716.390625 618.359375 L 716.390625 675.203125 L 93.558594 675.203125 L 93.558594 618.359375 Z M 716.390625 618.359375 " fill-opacity="1" fill-rule="nonzero"/></g></svg>