<svg xmlns="http://www.w3.org/2000/svg" xmlns:xlink="http://www.w3.org/1999/xlink" width="1080" zoomAndPan="magnify" viewBox="0 0 810 809.999993" height="1080" preserveAspectRatio="xMidYMid meet" version="1.0"><defs><clipPath id="01460d958c"><path d="M 370 69.828125 L 599 69.828125 L 599 267 L 370 267 Z M 370 69.828125 " clip-rule="nonzero"/></clipPath></defs><path fill="#2ea6d1" d="M 622.816406 661.132812 L 622.816406 533.4375 L 620.027344 535.984375 C 617.90625 537.914062 615.628906 539.636719 613.1875 541.144531 C 610.75 542.652344 608.191406 543.925781 605.515625 544.960938 C 602.839844 546 600.09375 546.78125 597.273438 547.308594 C 594.453125 547.835938 591.609375 548.101562 588.742188 548.101562 L 501.496094 548.101562 C 500.207031 548.070312 498.917969 547.976562 497.636719 547.820312 C 496.351562 547.664062 495.082031 547.445312 493.820312 547.164062 C 492.558594 546.886719 491.3125 546.546875 490.082031 546.148438 C 488.855469 545.746094 487.648438 545.289062 486.464844 544.773438 C 485.277344 544.257812 484.121094 543.683594 482.992188 543.054688 C 481.863281 542.425781 480.765625 541.746094 479.703125 541.011719 C 478.640625 540.277344 477.617188 539.492188 476.628906 538.660156 C 475.640625 537.824219 474.695312 536.945312 473.792969 536.023438 C 472.890625 535.097656 472.035156 534.128906 471.226562 533.125 C 470.417969 532.117188 469.660156 531.070312 468.949219 529.988281 C 468.242188 528.910156 467.589844 527.796875 466.988281 526.652344 C 466.386719 525.507812 465.84375 524.335938 465.355469 523.140625 C 464.871094 521.945312 464.441406 520.726562 464.070312 519.488281 C 463.703125 518.25 463.394531 516.996094 463.144531 515.726562 C 462.898438 514.460938 462.710938 513.183594 462.585938 511.898438 C 462.460938 510.609375 462.398438 509.320312 462.398438 508.027344 C 462.398438 506.738281 462.460938 505.449219 462.585938 504.160156 C 462.710938 502.875 462.898438 501.597656 463.144531 500.328125 C 463.394531 499.0625 463.703125 497.808594 464.070312 496.570312 C 464.441406 495.332031 464.871094 494.113281 465.355469 492.917969 C 465.84375 491.71875 466.386719 490.550781 466.988281 489.40625 C 467.589844 488.261719 468.242188 487.148438 468.949219 486.066406 C 469.660156 484.988281 470.417969 483.941406 471.226562 482.933594 C 472.035156 481.925781 472.890625 480.960938 473.792969 480.035156 C 474.695312 479.109375 475.640625 478.230469 476.628906 477.398438 C 477.617188 476.566406 478.640625 475.78125 479.703125 475.046875 C 480.765625 474.3125 481.863281 473.632812 482.992188 473.003906 C 484.121094 472.375 485.277344 471.800781 486.464844 471.285156 C 487.648438 470.769531 488.855469 470.3125 490.082031 469.910156 C 491.3125 469.511719 492.558594 469.171875 493.820312 468.890625 C 495.082031 468.613281 496.351562 468.394531 497.636719 468.238281 C 498.917969 468.082031 500.207031 467.988281 501.496094 467.957031 L 571.949219 467.957031 L 640.773438 385.558594 C 644.269531 381.195312 648.210938 377.285156 652.609375 373.832031 C 657.003906 370.375 661.734375 367.46875 666.800781 365.105469 C 671.589844 363.023438 676.539062 361.457031 681.648438 360.40625 C 686.761719 359.351562 691.925781 358.835938 697.144531 358.851562 C 737.496094 359.144531 770.332031 393.386719 770.332031 435.191406 L 770.332031 661.277344 C 770.332031 662.222656 770.238281 663.15625 770.050781 664.082031 C 769.867188 665.007812 769.59375 665.90625 769.230469 666.777344 C 768.867188 667.652344 768.421875 668.480469 767.898438 669.261719 C 767.371094 670.046875 766.777344 670.773438 766.109375 671.441406 C 765.441406 672.109375 764.710938 672.703125 763.925781 673.226562 C 763.140625 673.75 762.3125 674.195312 761.441406 674.554688 C 760.566406 674.914062 759.667969 675.1875 758.742188 675.371094 C 757.816406 675.554688 756.882812 675.648438 755.9375 675.648438 L 637.1875 675.648438 C 636.238281 675.648438 635.296875 675.554688 634.367188 675.367188 C 633.433594 675.183594 632.53125 674.90625 631.652344 674.539062 C 630.777344 674.175781 629.945312 673.726562 629.15625 673.195312 C 628.371094 672.664062 627.640625 672.0625 626.972656 671.386719 C 626.304688 670.710938 625.710938 669.980469 625.1875 669.1875 C 624.664062 668.394531 624.226562 667.554688 623.867188 666.675781 C 623.511719 665.796875 623.246094 664.890625 623.066406 663.957031 C 622.890625 663.023438 622.804688 662.082031 622.816406 661.132812 Z M 741.566406 435.046875 C 741.566406 408.992188 721.574219 387.667969 696.949219 387.472656 C 690.53125 387.527344 684.371094 388.800781 678.457031 391.300781 C 675.417969 392.773438 672.585938 394.566406 669.957031 396.6875 C 667.332031 398.804688 664.980469 401.195312 662.898438 403.855469 L 589.664062 491.632812 C 588.984375 492.4375 588.226562 493.160156 587.390625 493.800781 C 586.554688 494.441406 585.660156 494.984375 584.703125 495.429688 C 583.75 495.875 582.761719 496.214844 581.734375 496.445312 C 580.707031 496.675781 579.664062 496.792969 578.613281 496.796875 L 501.449219 496.796875 C 500.707031 496.796875 499.972656 496.867188 499.246094 497.011719 C 498.519531 497.15625 497.8125 497.371094 497.125 497.65625 C 496.441406 497.941406 495.789062 498.289062 495.175781 498.699219 C 494.558594 499.113281 493.988281 499.578125 493.464844 500.105469 C 492.9375 500.628906 492.46875 501.199219 492.058594 501.816406 C 491.648438 502.433594 491.296875 503.082031 491.015625 503.769531 C 490.730469 504.453125 490.515625 505.160156 490.371094 505.886719 C 490.226562 506.613281 490.15625 507.347656 490.15625 508.089844 C 490.15625 508.832031 490.226562 509.566406 490.371094 510.292969 C 490.515625 511.019531 490.730469 511.726562 491.015625 512.410156 C 491.296875 513.097656 491.648438 513.746094 492.058594 514.363281 C 492.46875 514.980469 492.9375 515.550781 493.464844 516.074219 C 493.988281 516.597656 494.558594 517.066406 495.175781 517.480469 C 495.789062 517.890625 496.441406 518.238281 497.125 518.523438 C 497.8125 518.808594 498.519531 519.019531 499.246094 519.164062 C 499.972656 519.3125 500.707031 519.382812 501.449219 519.382812 L 588.695312 519.382812 C 590.902344 519.386719 593.039062 518.992188 595.097656 518.199219 C 597.160156 517.40625 599.007812 516.265625 600.640625 514.777344 L 627.589844 490.324219 L 685.753906 437.640625 C 686.453125 437.003906 687.210938 436.441406 688.019531 435.953125 C 688.832031 435.464844 689.683594 435.0625 690.570312 434.742188 C 691.460938 434.421875 692.375 434.191406 693.3125 434.050781 C 694.246094 433.910156 695.1875 433.863281 696.132812 433.90625 C 697.078125 433.953125 698.011719 434.089844 698.929688 434.316406 C 699.847656 434.546875 700.734375 434.863281 701.589844 435.265625 C 702.445312 435.667969 703.253906 436.152344 704.015625 436.714844 C 704.777344 437.277344 705.472656 437.910156 706.109375 438.609375 C 706.746094 439.308594 707.308594 440.0625 707.796875 440.875 C 708.285156 441.6875 708.6875 442.535156 709.007812 443.425781 C 709.328125 444.316406 709.558594 445.230469 709.699219 446.167969 C 709.839844 447.101562 709.886719 448.042969 709.84375 448.988281 C 709.796875 449.933594 709.660156 450.863281 709.433594 451.78125 C 709.203125 452.703125 708.886719 453.589844 708.484375 454.445312 C 708.082031 455.300781 707.597656 456.109375 707.035156 456.871094 C 706.472656 457.628906 705.839844 458.328125 705.140625 458.964844 L 651.65625 507.433594 L 651.65625 646.734375 L 741.566406 646.734375 Z M 741.566406 435.046875 " fill-opacity="1" fill-rule="nonzero"/><path fill="#2ea6d1" d="M 646.273438 315.59375 C 645.207031 314.636719 644.164062 313.652344 643.148438 312.636719 C 642.136719 311.621094 641.152344 310.578125 640.199219 309.507812 C 639.246094 308.433594 638.324219 307.335938 637.429688 306.210938 C 636.539062 305.085938 635.683594 303.9375 634.855469 302.765625 C 634.03125 301.589844 633.242188 300.394531 632.484375 299.175781 C 631.726562 297.957031 631.007812 296.71875 630.320312 295.457031 C 629.636719 294.195312 628.988281 292.917969 628.375 291.621094 C 627.761719 290.324219 627.1875 289.007812 626.652344 287.679688 C 626.113281 286.347656 625.617188 285.003906 625.15625 283.644531 C 624.695312 282.285156 624.273438 280.914062 623.894531 279.53125 C 623.511719 278.148438 623.171875 276.753906 622.871094 275.351562 C 622.566406 273.949219 622.304688 272.539062 622.085938 271.121094 C 621.863281 269.703125 621.683594 268.28125 621.546875 266.855469 C 621.40625 265.425781 621.308594 263.996094 621.25 262.5625 C 621.191406 261.128906 621.175781 259.695312 621.203125 258.257812 C 621.226562 256.824219 621.292969 255.390625 621.398438 253.960938 C 621.507812 252.53125 621.652344 251.105469 621.84375 249.683594 C 622.03125 248.261719 622.261719 246.84375 622.53125 245.433594 C 622.800781 244.027344 623.109375 242.625 623.460938 241.234375 C 623.808594 239.84375 624.199219 238.464844 624.628906 237.09375 C 625.058594 235.726562 625.523438 234.371094 626.03125 233.027344 C 626.539062 231.683594 627.082031 230.359375 627.664062 229.046875 C 628.246094 227.734375 628.867188 226.441406 629.523438 225.167969 C 630.179688 223.890625 630.875 222.636719 631.601562 221.398438 C 632.332031 220.164062 633.09375 218.949219 633.894531 217.757812 C 634.691406 216.566406 635.523438 215.398438 636.386719 214.253906 C 637.253906 213.109375 638.152344 211.988281 639.078125 210.898438 C 640.007812 209.804688 640.96875 208.738281 641.960938 207.699219 C 642.949219 206.664062 643.96875 205.652344 645.015625 204.671875 C 646.066406 203.695312 647.140625 202.746094 648.242188 201.828125 C 649.34375 200.910156 650.472656 200.023438 651.625 199.167969 C 652.78125 198.316406 653.957031 197.496094 655.15625 196.710938 C 656.355469 195.925781 657.578125 195.171875 658.820312 194.457031 C 660.066406 193.742188 661.328125 193.0625 662.609375 192.417969 C 663.890625 191.773438 665.191406 191.167969 666.507812 190.597656 C 667.824219 190.027344 669.15625 189.496094 670.503906 189.003906 C 671.851562 188.511719 673.210938 188.058594 674.585938 187.644531 C 675.960938 187.226562 677.34375 186.851562 678.738281 186.515625 C 680.132812 186.179688 681.535156 185.886719 682.949219 185.628906 C 684.359375 185.375 685.777344 185.160156 687.203125 184.984375 C 688.625 184.8125 690.054688 184.679688 691.484375 184.585938 C 692.917969 184.496094 694.351562 184.441406 695.785156 184.433594 C 697.21875 184.421875 698.652344 184.453125 700.085938 184.527344 C 701.519531 184.597656 702.949219 184.710938 704.375 184.863281 C 705.800781 185.019531 707.222656 185.214844 708.636719 185.449219 C 710.054688 185.683594 711.460938 185.960938 712.859375 186.273438 C 714.257812 186.589844 715.648438 186.945312 717.027344 187.34375 C 718.40625 187.738281 719.773438 188.171875 721.128906 188.644531 C 722.480469 189.121094 723.820312 189.632812 725.148438 190.183594 C 726.472656 190.734375 727.78125 191.320312 729.070312 191.945312 C 730.363281 192.570312 731.632812 193.234375 732.886719 193.933594 C 734.140625 194.628906 735.371094 195.363281 736.582031 196.132812 C 737.796875 196.902344 738.984375 197.707031 740.148438 198.542969 C 741.3125 199.378906 742.453125 200.25 743.570312 201.152344 C 744.683594 202.054688 745.773438 202.988281 746.835938 203.953125 C 747.898438 204.917969 748.929688 205.910156 749.9375 206.933594 C 750.941406 207.957031 751.914062 209.011719 752.859375 210.089844 C 753.804688 211.171875 754.71875 212.277344 755.597656 213.40625 C 756.480469 214.539062 757.328125 215.695312 758.144531 216.878906 C 758.957031 218.058594 759.738281 219.261719 760.484375 220.484375 C 761.230469 221.710938 761.941406 222.957031 762.617188 224.222656 C 763.292969 225.488281 763.929688 226.773438 764.53125 228.078125 C 765.132812 229.378906 765.695312 230.699219 766.222656 232.03125 C 766.746094 233.367188 767.234375 234.714844 767.683594 236.078125 C 768.128906 237.441406 768.539062 238.816406 768.910156 240.203125 C 769.277344 241.589844 769.609375 242.984375 769.898438 244.390625 C 770.1875 245.796875 770.4375 247.207031 770.644531 248.628906 C 770.855469 250.046875 771.023438 251.472656 771.148438 252.898438 C 771.277344 254.328125 771.363281 255.761719 771.410156 257.195312 C 771.453125 258.628906 771.457031 260.0625 771.421875 261.496094 C 771.382812 262.929688 771.304688 264.363281 771.1875 265.792969 C 771.066406 267.222656 770.90625 268.648438 770.707031 270.066406 C 770.507812 271.488281 770.265625 272.902344 769.984375 274.308594 C 769.703125 275.714844 769.378906 277.113281 769.019531 278.5 C 768.65625 279.890625 768.253906 281.265625 767.816406 282.632812 C 767.375 283.996094 766.894531 285.347656 766.375 286.6875 C 765.859375 288.023438 765.300781 289.347656 764.707031 290.652344 C 764.113281 291.960938 763.484375 293.246094 762.816406 294.515625 C 762.148438 295.785156 761.445312 297.035156 760.707031 298.265625 C 759.96875 299.496094 759.195312 300.703125 758.386719 301.886719 C 757.578125 303.074219 756.734375 304.234375 755.859375 305.371094 C 754.984375 306.507812 754.078125 307.621094 753.140625 308.707031 C 752.203125 309.789062 751.234375 310.847656 750.234375 311.878906 C 749.234375 312.90625 748.207031 313.90625 747.152344 314.878906 C 746.09375 315.847656 745.011719 316.789062 743.898438 317.695312 C 742.789062 318.605469 741.65625 319.480469 740.496094 320.324219 C 739.332031 321.167969 738.148438 321.980469 736.945312 322.753906 C 735.738281 323.53125 734.507812 324.269531 733.257812 324.976562 C 732.011719 325.683594 730.742188 326.351562 729.453125 326.984375 C 728.167969 327.617188 726.863281 328.210938 725.539062 328.769531 C 724.21875 329.328125 722.882812 329.847656 721.53125 330.328125 C 720.179688 330.8125 718.816406 331.253906 717.4375 331.65625 C 716.0625 332.058594 714.671875 332.421875 713.277344 332.746094 C 711.878906 333.070312 710.472656 333.355469 709.058594 333.597656 C 707.644531 333.839844 706.226562 334.042969 704.800781 334.207031 C 703.375 334.367188 701.945312 334.488281 700.511719 334.570312 C 699.082031 334.570312 697.652344 334.570312 696.222656 334.570312 C 691.65625 334.585938 687.125 334.183594 682.632812 333.367188 C 678.140625 332.550781 673.757812 331.332031 669.492188 329.710938 C 665.222656 328.089844 661.136719 326.089844 657.234375 323.71875 C 653.332031 321.34375 649.679688 318.636719 646.273438 315.59375 Z M 693.726562 213.417969 C 692.726562 213.449219 691.726562 213.507812 690.730469 213.601562 C 689.734375 213.695312 688.742188 213.820312 687.753906 213.976562 C 686.765625 214.136719 685.78125 214.324219 684.804688 214.546875 C 683.828125 214.765625 682.859375 215.019531 681.902344 215.304688 C 680.941406 215.589844 679.992188 215.902344 679.050781 216.25 C 678.113281 216.59375 677.183594 216.96875 676.269531 217.375 C 675.355469 217.78125 674.453125 218.21875 673.566406 218.679688 C 672.679688 219.144531 671.808594 219.636719 670.953125 220.160156 C 670.097656 220.679688 669.261719 221.226562 668.441406 221.804688 C 667.621094 222.378906 666.824219 222.980469 666.042969 223.605469 C 665.261719 224.234375 664.503906 224.886719 663.765625 225.5625 C 663.027344 226.238281 662.3125 226.9375 661.617188 227.660156 C 660.925781 228.382812 660.257812 229.128906 659.613281 229.894531 C 658.96875 230.660156 658.347656 231.445312 657.753906 232.253906 C 657.164062 233.058594 656.59375 233.882812 656.054688 234.726562 C 655.515625 235.570312 655.003906 236.429688 654.519531 237.304688 C 654.035156 238.179688 653.582031 239.074219 653.152344 239.976562 C 652.726562 240.882812 652.332031 241.804688 651.964844 242.734375 C 651.597656 243.664062 651.261719 244.609375 650.957031 245.5625 C 650.652344 246.515625 650.375 247.476562 650.132812 248.449219 C 649.890625 249.417969 649.679688 250.398438 649.5 251.382812 C 649.320312 252.367188 649.171875 253.355469 649.054688 254.351562 C 648.941406 255.347656 648.859375 256.34375 648.808594 257.34375 C 648.757812 258.34375 648.738281 259.34375 648.75 260.34375 C 648.765625 261.34375 648.8125 262.34375 648.890625 263.34375 C 648.96875 264.339844 649.082031 265.335938 649.226562 266.324219 C 649.367188 267.316406 649.542969 268.300781 649.75 269.28125 C 649.960938 270.261719 650.199219 271.230469 650.46875 272.195312 C 650.738281 273.160156 651.039062 274.113281 651.371094 275.058594 C 651.707031 276.003906 652.066406 276.933594 652.460938 277.855469 C 652.855469 278.777344 653.277344 279.683594 653.726562 280.578125 C 654.179688 281.46875 654.660156 282.347656 655.167969 283.210938 C 655.675781 284.074219 656.214844 284.917969 656.777344 285.746094 C 657.339844 286.574219 657.929688 287.378906 658.546875 288.171875 C 659.164062 288.960938 659.804688 289.726562 660.46875 290.476562 C 661.136719 291.222656 661.824219 291.949219 662.535156 292.652344 C 663.25 293.355469 663.984375 294.03125 664.742188 294.6875 C 665.5 295.34375 666.277344 295.972656 667.074219 296.578125 C 667.871094 297.183594 668.6875 297.761719 669.523438 298.3125 C 670.359375 298.863281 671.210938 299.386719 672.082031 299.886719 C 672.949219 300.382812 673.835938 300.847656 674.734375 301.289062 C 675.632812 301.726562 676.546875 302.136719 677.472656 302.515625 C 678.398438 302.898438 679.335938 303.246094 680.285156 303.566406 C 681.234375 303.882812 682.191406 304.171875 683.160156 304.429688 C 684.128906 304.6875 685.101562 304.910156 686.085938 305.105469 C 687.066406 305.296875 688.054688 305.460938 689.046875 305.589844 C 690.039062 305.71875 691.035156 305.816406 692.035156 305.878906 C 693.035156 305.945312 694.035156 305.976562 695.035156 305.976562 C 696.035156 305.976562 697.035156 305.945312 698.035156 305.878906 C 699.035156 305.816406 700.03125 305.71875 701.023438 305.589844 C 702.015625 305.460938 703.003906 305.296875 703.984375 305.105469 C 704.96875 304.910156 705.941406 304.6875 706.910156 304.429688 C 707.878906 304.171875 708.835938 303.882812 709.785156 303.566406 C 710.734375 303.246094 711.671875 302.898438 712.597656 302.515625 C 713.523438 302.136719 714.4375 301.726562 715.335938 301.289062 C 716.238281 300.847656 717.121094 300.382812 717.992188 299.886719 C 718.859375 299.386719 719.710938 298.863281 720.546875 298.3125 C 721.382812 297.761719 722.199219 297.183594 722.996094 296.578125 C 723.796875 295.972656 724.574219 295.34375 725.328125 294.6875 C 726.085938 294.03125 726.820312 293.355469 727.535156 292.652344 C 728.246094 291.949219 728.9375 291.222656 729.601562 290.476562 C 730.269531 289.726562 730.910156 288.960938 731.523438 288.171875 C 732.140625 287.378906 732.730469 286.574219 733.292969 285.746094 C 733.859375 284.917969 734.394531 284.074219 734.902344 283.210938 C 735.410156 282.347656 735.890625 281.46875 736.34375 280.578125 C 736.796875 279.683594 737.21875 278.777344 737.609375 277.855469 C 738.003906 276.933594 738.367188 276.003906 738.699219 275.058594 C 739.03125 274.113281 739.332031 273.160156 739.601562 272.195312 C 739.871094 271.230469 740.113281 270.261719 740.320312 269.28125 C 740.527344 268.300781 740.703125 267.316406 740.847656 266.324219 C 740.988281 265.335938 741.101562 264.339844 741.179688 263.34375 C 741.257812 262.34375 741.304688 261.34375 741.320312 260.34375 C 741.332031 259.34375 741.316406 258.34375 741.265625 257.34375 C 741.214844 256.34375 741.128906 255.347656 741.015625 254.351562 C 740.898438 253.355469 740.753906 252.367188 740.570312 251.382812 C 740.394531 250.398438 740.179688 249.417969 739.9375 248.449219 C 739.695312 247.476562 739.421875 246.515625 739.113281 245.5625 C 738.808594 244.609375 738.472656 243.664062 738.105469 242.734375 C 737.738281 241.804688 737.34375 240.882812 736.917969 239.976562 C 736.492188 239.074219 736.035156 238.179688 735.550781 237.304688 C 735.066406 236.429688 734.554688 235.570312 734.015625 234.726562 C 733.476562 233.882812 732.910156 233.058594 732.316406 232.253906 C 731.722656 231.445312 731.101562 230.660156 730.457031 229.894531 C 729.8125 229.128906 729.144531 228.382812 728.453125 227.660156 C 727.761719 226.9375 727.042969 226.238281 726.308594 225.5625 C 725.570312 224.886719 724.808594 224.234375 724.027344 223.605469 C 723.25 222.980469 722.449219 222.378906 721.628906 221.804688 C 720.808594 221.226562 719.972656 220.679688 719.117188 220.160156 C 718.261719 219.636719 717.390625 219.144531 716.503906 218.679688 C 715.617188 218.21875 714.71875 217.78125 713.800781 217.375 C 712.886719 216.96875 711.960938 216.59375 711.019531 216.25 C 710.082031 215.902344 709.128906 215.589844 708.171875 215.304688 C 707.210938 215.019531 706.242188 214.765625 705.265625 214.546875 C 704.289062 214.324219 703.308594 214.136719 702.320312 213.976562 C 701.328125 213.820312 700.335938 213.695312 699.339844 213.601562 C 698.34375 213.507812 697.34375 213.449219 696.34375 213.417969 C 695.472656 213.371094 694.597656 213.371094 693.726562 213.417969 Z M 693.726562 213.417969 " fill-opacity="1" fill-rule="nonzero"/><path fill="#2ea6d1" d="M 63.527344 315.59375 C 62.457031 314.636719 61.414062 313.652344 60.402344 312.636719 C 59.386719 311.621094 58.40625 310.578125 57.449219 309.507812 C 56.496094 308.433594 55.574219 307.335938 54.683594 306.210938 C 53.792969 305.085938 52.933594 303.9375 52.109375 302.765625 C 51.285156 301.589844 50.492188 300.394531 49.734375 299.175781 C 48.980469 297.957031 48.257812 296.714844 47.574219 295.457031 C 46.886719 294.195312 46.238281 292.917969 45.625 291.617188 C 45.015625 290.320312 44.4375 289.007812 43.902344 287.675781 C 43.363281 286.347656 42.867188 285 42.40625 283.640625 C 41.945312 282.285156 41.527344 280.914062 41.144531 279.527344 C 40.761719 278.144531 40.421875 276.753906 40.121094 275.351562 C 39.820312 273.949219 39.558594 272.539062 39.335938 271.121094 C 39.117188 269.703125 38.9375 268.277344 38.796875 266.851562 C 38.65625 265.421875 38.558594 263.992188 38.5 262.558594 C 38.445312 261.125 38.429688 259.691406 38.453125 258.257812 C 38.476562 256.820312 38.542969 255.390625 38.648438 253.957031 C 38.757812 252.527344 38.90625 251.101562 39.09375 249.679688 C 39.28125 248.257812 39.511719 246.839844 39.78125 245.429688 C 40.050781 244.023438 40.359375 242.621094 40.710938 241.230469 C 41.0625 239.839844 41.449219 238.457031 41.878906 237.089844 C 42.308594 235.71875 42.777344 234.363281 43.285156 233.023438 C 43.789062 231.679688 44.335938 230.355469 44.917969 229.042969 C 45.5 227.730469 46.121094 226.4375 46.777344 225.164062 C 47.433594 223.886719 48.128906 222.632812 48.855469 221.394531 C 49.585938 220.160156 50.347656 218.945312 51.148438 217.753906 C 51.945312 216.5625 52.777344 215.394531 53.640625 214.25 C 54.507812 213.105469 55.40625 211.984375 56.335938 210.890625 C 57.261719 209.800781 58.222656 208.734375 59.214844 207.695312 C 60.203125 206.65625 61.222656 205.648438 62.273438 204.667969 C 63.320312 203.6875 64.394531 202.738281 65.5 201.820312 C 66.601562 200.902344 67.730469 200.019531 68.882812 199.164062 C 70.035156 198.3125 71.210938 197.492188 72.414062 196.707031 C 73.613281 195.917969 74.835938 195.167969 76.078125 194.453125 C 77.320312 193.738281 78.585938 193.058594 79.867188 192.414062 C 81.148438 191.769531 82.449219 191.164062 83.765625 190.59375 C 85.082031 190.023438 86.414062 189.492188 87.761719 189 C 89.109375 188.507812 90.46875 188.054688 91.84375 187.640625 C 93.21875 187.226562 94.601562 186.847656 95.996094 186.515625 C 97.390625 186.179688 98.796875 185.882812 100.207031 185.628906 C 101.617188 185.371094 103.039062 185.15625 104.460938 184.984375 C 105.886719 184.808594 107.3125 184.675781 108.746094 184.585938 C 110.175781 184.492188 111.609375 184.441406 113.046875 184.433594 C 114.480469 184.421875 115.914062 184.453125 117.347656 184.523438 C 118.78125 184.597656 120.210938 184.710938 121.636719 184.863281 C 123.0625 185.019531 124.484375 185.214844 125.898438 185.449219 C 127.3125 185.683594 128.722656 185.960938 130.121094 186.277344 C 131.519531 186.59375 132.910156 186.949219 134.289062 187.34375 C 135.667969 187.738281 137.035156 188.175781 138.390625 188.648438 C 139.742188 189.121094 141.082031 189.632812 142.40625 190.183594 C 143.730469 190.734375 145.039062 191.324219 146.332031 191.949219 C 147.621094 192.574219 148.894531 193.238281 150.148438 193.9375 C 151.402344 194.636719 152.632812 195.367188 153.84375 196.136719 C 155.054688 196.90625 156.242188 197.710938 157.410156 198.546875 C 158.574219 199.386719 159.714844 200.253906 160.828125 201.15625 C 161.945312 202.058594 163.035156 202.992188 164.09375 203.957031 C 165.15625 204.921875 166.191406 205.917969 167.195312 206.941406 C 168.199219 207.964844 169.175781 209.019531 170.121094 210.097656 C 171.0625 211.179688 171.976562 212.285156 172.859375 213.417969 C 173.738281 214.550781 174.585938 215.707031 175.402344 216.886719 C 176.21875 218.066406 176.996094 219.269531 177.742188 220.496094 C 178.488281 221.722656 179.199219 222.96875 179.875 224.234375 C 180.550781 225.5 181.1875 226.785156 181.789062 228.089844 C 182.390625 229.390625 182.953125 230.710938 183.476562 232.046875 C 184.003906 233.378906 184.488281 234.730469 184.9375 236.09375 C 185.386719 237.457031 185.792969 238.828125 186.164062 240.214844 C 186.535156 241.601562 186.863281 243 187.152344 244.402344 C 187.441406 245.808594 187.691406 247.222656 187.898438 248.640625 C 188.109375 250.0625 188.273438 251.484375 188.402344 252.914062 C 188.527344 254.34375 188.613281 255.773438 188.660156 257.207031 C 188.703125 258.644531 188.707031 260.078125 188.671875 261.511719 C 188.632812 262.945312 188.554688 264.378906 188.4375 265.808594 C 188.316406 267.238281 188.15625 268.664062 187.957031 270.082031 C 187.753906 271.503906 187.511719 272.917969 187.230469 274.324219 C 186.949219 275.730469 186.625 277.128906 186.265625 278.515625 C 185.902344 279.90625 185.5 281.28125 185.058594 282.648438 C 184.621094 284.011719 184.140625 285.363281 183.621094 286.703125 C 183.101562 288.039062 182.546875 289.363281 181.953125 290.667969 C 181.359375 291.972656 180.726562 293.261719 180.058594 294.53125 C 179.390625 295.800781 178.6875 297.050781 177.949219 298.28125 C 177.207031 299.511719 176.433594 300.71875 175.625 301.902344 C 174.816406 303.089844 173.976562 304.25 173.101562 305.386719 C 172.222656 306.523438 171.316406 307.632812 170.378906 308.71875 C 169.441406 309.804688 168.46875 310.859375 167.472656 311.890625 C 166.472656 312.917969 165.445312 313.917969 164.386719 314.890625 C 163.332031 315.859375 162.246094 316.800781 161.136719 317.707031 C 160.023438 318.617188 158.890625 319.492188 157.730469 320.335938 C 156.566406 321.179688 155.382812 321.988281 154.175781 322.765625 C 152.96875 323.539062 151.742188 324.28125 150.492188 324.984375 C 149.242188 325.691406 147.972656 326.359375 146.6875 326.992188 C 145.398438 327.625 144.09375 328.21875 142.769531 328.777344 C 141.449219 329.335938 140.113281 329.855469 138.761719 330.335938 C 137.410156 330.816406 136.042969 331.257812 134.667969 331.660156 C 133.289062 332.0625 131.902344 332.425781 130.503906 332.75 C 129.109375 333.074219 127.703125 333.359375 126.289062 333.601562 C 124.875 333.84375 123.453125 334.046875 122.027344 334.207031 C 120.601562 334.367188 119.171875 334.488281 117.742188 334.570312 C 116.3125 334.570312 114.882812 334.570312 113.453125 334.570312 C 108.886719 334.585938 104.359375 334.1875 99.867188 333.371094 C 95.375 332.554688 90.996094 331.332031 86.730469 329.710938 C 82.460938 328.089844 78.378906 326.09375 74.480469 323.71875 C 70.578125 321.347656 66.929688 318.636719 63.527344 315.59375 Z M 110.953125 213.417969 C 109.953125 213.449219 108.957031 213.507812 107.957031 213.601562 C 106.960938 213.695312 105.96875 213.820312 104.980469 213.976562 C 103.992188 214.136719 103.007812 214.324219 102.03125 214.546875 C 101.058594 214.765625 100.089844 215.019531 99.128906 215.304688 C 98.167969 215.589844 97.21875 215.902344 96.28125 216.25 C 95.339844 216.59375 94.414062 216.96875 93.496094 217.375 C 92.582031 217.78125 91.679688 218.21875 90.792969 218.679688 C 89.90625 219.144531 89.035156 219.636719 88.179688 220.160156 C 87.328125 220.679688 86.488281 221.226562 85.671875 221.804688 C 84.851562 222.378906 84.050781 222.980469 83.269531 223.605469 C 82.488281 224.234375 81.730469 224.886719 80.992188 225.5625 C 80.253906 226.238281 79.539062 226.9375 78.847656 227.660156 C 78.152344 228.382812 77.484375 229.128906 76.839844 229.894531 C 76.195312 230.660156 75.578125 231.445312 74.984375 232.253906 C 74.390625 233.058594 73.824219 233.882812 73.285156 234.726562 C 72.742188 235.570312 72.230469 236.429688 71.746094 237.304688 C 71.261719 238.179688 70.808594 239.074219 70.382812 239.976562 C 69.957031 240.882812 69.558594 241.804688 69.191406 242.734375 C 68.824219 243.664062 68.488281 244.609375 68.183594 245.5625 C 67.878906 246.515625 67.605469 247.476562 67.359375 248.449219 C 67.117188 249.417969 66.90625 250.398438 66.726562 251.382812 C 66.546875 252.367188 66.398438 253.355469 66.285156 254.351562 C 66.167969 255.347656 66.085938 256.34375 66.035156 257.34375 C 65.984375 258.34375 65.964844 259.34375 65.980469 260.34375 C 65.996094 261.34375 66.039062 262.34375 66.121094 263.34375 C 66.199219 264.339844 66.308594 265.335938 66.453125 266.324219 C 66.597656 267.316406 66.773438 268.300781 66.980469 269.28125 C 67.1875 270.261719 67.425781 271.230469 67.695312 272.195312 C 67.96875 273.160156 68.269531 274.113281 68.601562 275.058594 C 68.933594 276.003906 69.296875 276.933594 69.6875 277.855469 C 70.082031 278.777344 70.503906 279.683594 70.957031 280.578125 C 71.40625 281.46875 71.886719 282.347656 72.398438 283.210938 C 72.90625 284.074219 73.441406 284.917969 74.003906 285.746094 C 74.570312 286.574219 75.160156 287.382812 75.773438 288.171875 C 76.390625 288.960938 77.03125 289.726562 77.695312 290.476562 C 78.363281 291.222656 79.050781 291.949219 79.765625 292.652344 C 80.476562 293.355469 81.214844 294.03125 81.96875 294.6875 C 82.726562 295.34375 83.503906 295.972656 84.300781 296.578125 C 85.101562 297.183594 85.917969 297.761719 86.75 298.3125 C 87.585938 298.863281 88.4375 299.386719 89.308594 299.886719 C 90.179688 300.382812 91.0625 300.847656 91.960938 301.289062 C 92.863281 301.726562 93.773438 302.136719 94.703125 302.515625 C 95.628906 302.898438 96.566406 303.246094 97.515625 303.566406 C 98.464844 303.882812 99.421875 304.171875 100.390625 304.429688 C 101.355469 304.6875 102.332031 304.910156 103.3125 305.105469 C 104.296875 305.296875 105.285156 305.460938 106.277344 305.589844 C 107.269531 305.71875 108.265625 305.816406 109.261719 305.878906 C 110.261719 305.945312 111.261719 305.976562 112.265625 305.976562 C 113.265625 305.976562 114.265625 305.945312 115.265625 305.878906 C 116.261719 305.816406 117.257812 305.71875 118.25 305.589844 C 119.246094 305.460938 120.230469 305.296875 121.214844 305.105469 C 122.195312 304.910156 123.171875 304.6875 124.136719 304.429688 C 125.105469 304.171875 126.066406 303.882812 127.011719 303.566406 C 127.960938 303.246094 128.898438 302.898438 129.828125 302.515625 C 130.753906 302.136719 131.664062 301.726562 132.566406 301.289062 C 133.464844 300.847656 134.347656 300.382812 135.21875 299.886719 C 136.089844 299.386719 136.941406 298.863281 137.777344 298.3125 C 138.609375 297.761719 139.425781 297.183594 140.226562 296.578125 C 141.023438 295.972656 141.800781 295.34375 142.558594 294.6875 C 143.316406 294.03125 144.050781 293.355469 144.761719 292.652344 C 145.476562 291.949219 146.164062 291.222656 146.832031 290.476562 C 147.496094 289.726562 148.136719 288.960938 148.753906 288.171875 C 149.367188 287.378906 149.957031 286.574219 150.523438 285.746094 C 151.085938 284.917969 151.621094 284.074219 152.128906 283.210938 C 152.640625 282.347656 153.121094 281.46875 153.570312 280.578125 C 154.023438 279.683594 154.445312 278.777344 154.839844 277.855469 C 155.230469 276.933594 155.59375 276.003906 155.925781 275.058594 C 156.257812 274.113281 156.558594 273.160156 156.832031 272.195312 C 157.101562 271.230469 157.339844 270.261719 157.546875 269.28125 C 157.753906 268.300781 157.929688 267.316406 158.074219 266.324219 C 158.21875 265.335938 158.328125 264.339844 158.40625 263.34375 C 158.488281 262.34375 158.535156 261.34375 158.546875 260.34375 C 158.5625 259.34375 158.542969 258.34375 158.492188 257.34375 C 158.441406 256.34375 158.359375 255.347656 158.242188 254.351562 C 158.128906 253.355469 157.980469 252.367188 157.800781 251.382812 C 157.621094 250.398438 157.410156 249.417969 157.167969 248.449219 C 156.921875 247.476562 156.648438 246.515625 156.34375 245.5625 C 156.039062 244.609375 155.703125 243.664062 155.335938 242.734375 C 154.96875 241.804688 154.570312 240.882812 154.144531 239.976562 C 153.71875 239.074219 153.265625 238.179688 152.78125 237.304688 C 152.296875 236.429688 151.785156 235.570312 151.242188 234.726562 C 150.703125 233.882812 150.136719 233.058594 149.542969 232.253906 C 148.949219 231.445312 148.332031 230.660156 147.6875 229.894531 C 147.042969 229.128906 146.375 228.382812 145.679688 227.660156 C 144.988281 226.9375 144.273438 226.238281 143.535156 225.5625 C 142.796875 224.886719 142.039062 224.234375 141.257812 223.605469 C 140.476562 222.980469 139.675781 222.378906 138.859375 221.804688 C 138.039062 221.226562 137.199219 220.679688 136.347656 220.160156 C 135.492188 219.636719 134.621094 219.144531 133.734375 218.679688 C 132.847656 218.21875 131.945312 217.78125 131.03125 217.375 C 130.113281 216.96875 129.1875 216.59375 128.246094 216.25 C 127.308594 215.902344 126.359375 215.589844 125.398438 215.304688 C 124.4375 215.019531 123.46875 214.765625 122.496094 214.546875 C 121.519531 214.324219 120.535156 214.136719 119.546875 213.976562 C 118.558594 213.820312 117.566406 213.695312 116.570312 213.601562 C 115.570312 213.507812 114.574219 213.449219 113.574219 213.417969 C 112.683594 213.371094 111.8125 213.371094 110.953125 213.417969 Z M 110.953125 213.417969 " fill-opacity="1" fill-rule="nonzero"/><path fill="#2ea6d1" d="M 39.535156 661.132812 L 39.535156 435.046875 C 39.535156 393.242188 72.375 358.996094 112.722656 358.707031 C 117.941406 358.695312 123.105469 359.214844 128.21875 360.265625 C 133.328125 361.320312 138.277344 362.882812 143.066406 364.960938 C 148.132812 367.324219 152.863281 370.230469 157.257812 373.683594 C 161.65625 377.140625 165.601562 381.050781 169.09375 385.414062 L 237.921875 467.8125 L 308.539062 467.8125 C 309.832031 467.84375 311.121094 467.9375 312.402344 468.09375 C 313.683594 468.25 314.957031 468.46875 316.21875 468.746094 C 317.480469 469.027344 318.726562 469.367188 319.953125 469.765625 C 321.183594 470.164062 322.390625 470.625 323.574219 471.140625 C 324.757812 471.65625 325.917969 472.230469 327.046875 472.855469 C 328.175781 473.484375 329.269531 474.167969 330.335938 474.902344 C 331.398438 475.636719 332.421875 476.417969 333.410156 477.253906 C 334.398438 478.085938 335.34375 478.964844 336.246094 479.890625 C 337.148438 480.816406 338.003906 481.78125 338.8125 482.789062 C 339.621094 483.796875 340.378906 484.839844 341.085938 485.921875 C 341.796875 487.003906 342.449219 488.117188 343.050781 489.261719 C 343.652344 490.40625 344.195312 491.574219 344.679688 492.773438 C 345.167969 493.96875 345.597656 495.1875 345.964844 496.425781 C 346.335938 497.664062 346.644531 498.917969 346.894531 500.183594 C 347.140625 501.453125 347.328125 502.730469 347.453125 504.015625 C 347.578125 505.300781 347.640625 506.589844 347.640625 507.882812 C 347.640625 509.175781 347.578125 510.464844 347.453125 511.75 C 347.328125 513.039062 347.140625 514.316406 346.894531 515.582031 C 346.644531 516.851562 346.335938 518.105469 345.964844 519.34375 C 345.597656 520.582031 345.167969 521.796875 344.679688 522.996094 C 344.195312 524.191406 343.652344 525.363281 343.050781 526.507812 C 342.449219 527.652344 341.796875 528.765625 341.085938 529.84375 C 340.378906 530.925781 339.621094 531.96875 338.8125 532.976562 C 338.003906 533.984375 337.148438 534.953125 336.246094 535.875 C 335.34375 536.800781 334.398438 537.679688 333.410156 538.515625 C 332.421875 539.347656 331.398438 540.132812 330.335938 540.867188 C 329.269531 541.601562 328.175781 542.28125 327.046875 542.910156 C 325.917969 543.539062 324.757812 544.109375 323.574219 544.628906 C 322.390625 545.144531 321.183594 545.601562 319.953125 546 C 318.726562 546.402344 317.480469 546.742188 316.21875 547.019531 C 314.957031 547.300781 313.683594 547.515625 312.402344 547.671875 C 311.121094 547.828125 309.832031 547.925781 308.539062 547.957031 L 221.296875 547.957031 C 218.425781 547.953125 215.582031 547.691406 212.761719 547.164062 C 209.945312 546.632812 207.195312 545.851562 204.519531 544.816406 C 201.847656 543.78125 199.289062 542.507812 196.847656 541 C 194.410156 539.488281 192.128906 537.769531 190.007812 535.839844 L 187.222656 533.292969 L 187.222656 660.984375 C 187.222656 661.929688 187.128906 662.863281 186.945312 663.789062 C 186.761719 664.714844 186.488281 665.613281 186.128906 666.484375 C 185.765625 667.359375 185.324219 668.1875 184.800781 668.96875 C 184.273438 669.753906 183.679688 670.480469 183.011719 671.148438 C 182.34375 671.816406 181.621094 672.410156 180.835938 672.933594 C 180.050781 673.460938 179.222656 673.902344 178.351562 674.261719 C 177.476562 674.625 176.578125 674.898438 175.652344 675.082031 C 174.730469 675.265625 173.792969 675.355469 172.851562 675.359375 L 54.078125 675.359375 C 53.132812 675.367188 52.195312 675.285156 51.269531 675.109375 C 50.339844 674.933594 49.4375 674.671875 48.5625 674.320312 C 47.683594 673.96875 46.851562 673.535156 46.0625 673.015625 C 45.269531 672.5 44.539062 671.914062 43.863281 671.253906 C 43.1875 670.59375 42.582031 669.871094 42.050781 669.09375 C 41.515625 668.3125 41.066406 667.492188 40.695312 666.621094 C 40.320312 665.753906 40.039062 664.859375 39.84375 663.933594 C 39.648438 663.011719 39.546875 662.074219 39.535156 661.132812 Z M 158.285156 507.363281 L 104.800781 458.894531 C 104.097656 458.257812 103.46875 457.558594 102.90625 456.796875 C 102.34375 456.035156 101.859375 455.226562 101.457031 454.371094 C 101.054688 453.515625 100.738281 452.628906 100.507812 451.710938 C 100.28125 450.792969 100.144531 449.859375 100.097656 448.914062 C 100.054688 447.96875 100.101562 447.03125 100.242188 446.09375 C 100.382812 445.15625 100.613281 444.246094 100.933594 443.355469 C 101.253906 442.464844 101.65625 441.613281 102.144531 440.800781 C 102.632812 439.992188 103.195312 439.234375 103.828125 438.535156 C 104.464844 437.835938 105.164062 437.203125 105.925781 436.640625 C 106.6875 436.078125 107.496094 435.597656 108.351562 435.191406 C 109.207031 434.789062 110.09375 434.472656 111.011719 434.246094 C 111.929688 434.015625 112.863281 433.878906 113.808594 433.835938 C 114.753906 433.789062 115.695312 433.835938 116.628906 433.976562 C 117.566406 434.117188 118.476562 434.347656 119.367188 434.667969 C 120.257812 434.988281 121.109375 435.390625 121.921875 435.878906 C 122.730469 436.367188 123.488281 436.929688 124.1875 437.566406 L 182.519531 490.398438 L 209.179688 514.632812 C 210.8125 516.121094 212.660156 517.257812 214.722656 518.054688 C 216.78125 518.847656 218.917969 519.242188 221.125 519.238281 L 308.371094 519.238281 C 309.113281 519.238281 309.847656 519.164062 310.574219 519.019531 C 311.300781 518.875 312.007812 518.660156 312.691406 518.378906 C 313.378906 518.09375 314.027344 517.746094 314.644531 517.335938 C 315.261719 516.921875 315.832031 516.453125 316.355469 515.929688 C 316.878906 515.40625 317.347656 514.835938 317.761719 514.21875 C 318.171875 513.601562 318.519531 512.949219 318.804688 512.265625 C 319.089844 511.582031 319.300781 510.875 319.445312 510.148438 C 319.59375 509.421875 319.664062 508.6875 319.664062 507.945312 C 319.664062 507.203125 319.59375 506.46875 319.445312 505.742188 C 319.300781 505.011719 319.089844 504.308594 318.804688 503.621094 C 318.519531 502.9375 318.171875 502.285156 317.761719 501.667969 C 317.347656 501.054688 316.878906 500.484375 316.355469 499.957031 C 315.832031 499.433594 315.261719 498.964844 314.644531 498.554688 C 314.027344 498.140625 313.378906 497.792969 312.691406 497.511719 C 312.007812 497.226562 311.300781 497.011719 310.574219 496.867188 C 309.847656 496.722656 309.113281 496.652344 308.371094 496.652344 L 231.230469 496.652344 C 230.183594 496.65625 229.148438 496.546875 228.125 496.328125 C 227.101562 496.109375 226.113281 495.785156 225.15625 495.351562 C 224.203125 494.917969 223.308594 494.386719 222.46875 493.761719 C 221.628906 493.132812 220.867188 492.425781 220.179688 491.632812 L 147.039062 403.855469 C 144.960938 401.195312 142.609375 398.804688 139.980469 396.6875 C 137.355469 394.566406 134.519531 392.773438 131.480469 391.300781 C 125.601562 388.652344 119.4375 387.359375 112.992188 387.425781 C 88.367188 387.617188 68.375 408.945312 68.375 434.996094 L 68.375 646.734375 L 158.285156 646.734375 Z M 158.285156 507.363281 " fill-opacity="1" fill-rule="nonzero"/><path fill="#2ea6d1" d="M 218.167969 661.132812 L 218.167969 533.65625 C 218.167969 532.710938 218.261719 531.777344 218.445312 530.847656 C 218.628906 529.921875 218.902344 529.023438 219.265625 528.148438 C 219.625 527.273438 220.070312 526.445312 220.59375 525.660156 C 221.121094 524.875 221.71875 524.144531 222.386719 523.476562 C 223.054688 522.808594 223.78125 522.214844 224.566406 521.6875 C 225.351562 521.164062 226.183594 520.71875 227.054688 520.359375 C 227.929688 519.996094 228.828125 519.722656 229.757812 519.539062 C 230.683594 519.355469 231.621094 519.261719 232.566406 519.261719 L 577.304688 519.261719 C 578.25 519.261719 579.183594 519.355469 580.113281 519.539062 C 581.039062 519.722656 581.9375 519.996094 582.8125 520.359375 C 583.683594 520.71875 584.515625 521.164062 585.300781 521.6875 C 586.085938 522.214844 586.8125 522.808594 587.480469 523.476562 C 588.152344 524.144531 588.746094 524.875 589.273438 525.660156 C 589.796875 526.445312 590.242188 527.273438 590.601562 528.148438 C 590.964844 529.019531 591.238281 529.921875 591.421875 530.847656 C 591.605469 531.777344 591.699219 532.710938 591.699219 533.65625 L 591.699219 661.132812 C 591.695312 662.074219 591.605469 663.011719 591.417969 663.9375 C 591.234375 664.863281 590.957031 665.761719 590.597656 666.632812 C 590.234375 667.503906 589.789062 668.332031 589.265625 669.117188 C 588.738281 669.902344 588.140625 670.628906 587.472656 671.296875 C 586.804688 671.960938 586.078125 672.558594 585.292969 673.082031 C 584.507812 673.605469 583.679688 674.046875 582.804688 674.410156 C 581.933594 674.769531 581.035156 675.042969 580.109375 675.226562 C 579.183594 675.410156 578.246094 675.503906 577.304688 675.503906 L 232.566406 675.503906 C 231.621094 675.503906 230.683594 675.410156 229.757812 675.226562 C 228.832031 675.042969 227.933594 674.769531 227.0625 674.410156 C 226.1875 674.046875 225.359375 673.605469 224.574219 673.082031 C 223.789062 672.558594 223.0625 671.960938 222.394531 671.296875 C 221.726562 670.628906 221.128906 669.902344 220.605469 669.117188 C 220.078125 668.332031 219.632812 667.503906 219.273438 666.632812 C 218.910156 665.761719 218.636719 664.863281 218.449219 663.9375 C 218.265625 663.011719 218.171875 662.074219 218.167969 661.132812 Z M 563.003906 548.050781 L 246.9375 548.050781 L 246.9375 646.734375 L 563.003906 646.734375 Z M 563.003906 548.050781 " fill-opacity="1" fill-rule="nonzero"/><path fill="#2ea6d1" d="M 20.003906 675.503906 L 789.867188 675.503906 C 790.347656 675.523438 790.832031 675.519531 791.316406 675.488281 C 791.796875 675.460938 792.277344 675.40625 792.757812 675.328125 C 793.234375 675.253906 793.707031 675.152344 794.171875 675.027344 C 794.640625 674.902344 795.101562 674.753906 795.554688 674.582031 C 796.003906 674.410156 796.449219 674.21875 796.882812 674 C 797.3125 673.785156 797.734375 673.546875 798.144531 673.289062 C 798.554688 673.03125 798.949219 672.753906 799.328125 672.457031 C 799.710938 672.15625 800.074219 671.839844 800.425781 671.503906 C 800.773438 671.171875 801.105469 670.820312 801.417969 670.449219 C 801.730469 670.082031 802.027344 669.699219 802.300781 669.300781 C 802.578125 668.902344 802.832031 668.492188 803.0625 668.066406 C 803.296875 667.644531 803.507812 667.210938 803.699219 666.765625 C 803.886719 666.320312 804.054688 665.867188 804.199219 665.402344 C 804.34375 664.941406 804.464844 664.472656 804.558594 664 C 804.65625 663.527344 804.730469 663.046875 804.777344 662.566406 C 804.828125 662.085938 804.851562 661.601562 804.851562 661.121094 C 804.851562 660.636719 804.828125 660.152344 804.777344 659.671875 C 804.730469 659.191406 804.65625 658.710938 804.558594 658.238281 C 804.464844 657.765625 804.34375 657.296875 804.199219 656.835938 C 804.054688 656.375 803.886719 655.917969 803.699219 655.472656 C 803.507812 655.03125 803.296875 654.59375 803.0625 654.171875 C 802.832031 653.746094 802.578125 653.335938 802.300781 652.9375 C 802.027344 652.539062 801.730469 652.15625 801.417969 651.789062 C 801.105469 651.421875 800.773438 651.070312 800.425781 650.734375 C 800.074219 650.398438 799.710938 650.082031 799.328125 649.785156 C 798.949219 649.484375 798.554688 649.207031 798.144531 648.949219 C 797.734375 648.691406 797.3125 648.453125 796.882812 648.238281 C 796.449219 648.023438 796.003906 647.828125 795.554688 647.65625 C 795.101562 647.484375 794.640625 647.335938 794.171875 647.210938 C 793.707031 647.085938 793.234375 646.988281 792.757812 646.910156 C 792.277344 646.832031 791.796875 646.777344 791.316406 646.75 C 790.832031 646.722656 790.347656 646.714844 789.867188 646.734375 L 20.003906 646.734375 C 19.519531 646.714844 19.035156 646.722656 18.550781 646.75 C 18.070312 646.777344 17.589844 646.832031 17.113281 646.910156 C 16.632812 646.988281 16.160156 647.085938 15.695312 647.210938 C 15.226562 647.335938 14.765625 647.484375 14.316406 647.65625 C 13.863281 647.828125 13.417969 648.023438 12.988281 648.238281 C 12.554688 648.453125 12.132812 648.691406 11.722656 648.949219 C 11.316406 649.207031 10.917969 649.484375 10.539062 649.785156 C 10.15625 650.082031 9.792969 650.398438 9.445312 650.734375 C 9.09375 651.070312 8.761719 651.421875 8.449219 651.789062 C 8.136719 652.15625 7.84375 652.539062 7.566406 652.9375 C 7.292969 653.335938 7.039062 653.746094 6.804688 654.171875 C 6.570312 654.59375 6.359375 655.03125 6.167969 655.472656 C 5.980469 655.917969 5.8125 656.375 5.667969 656.835938 C 5.523438 657.296875 5.40625 657.765625 5.308594 658.238281 C 5.210938 658.710938 5.136719 659.191406 5.089844 659.671875 C 5.039062 660.152344 5.015625 660.636719 5.015625 661.121094 C 5.015625 661.601562 5.039062 662.085938 5.089844 662.566406 C 5.136719 663.046875 5.210938 663.527344 5.308594 664 C 5.40625 664.472656 5.523438 664.941406 5.667969 665.402344 C 5.8125 665.867188 5.980469 666.320312 6.167969 666.765625 C 6.359375 667.210938 6.570312 667.644531 6.804688 668.066406 C 7.039062 668.492188 7.292969 668.902344 7.566406 669.300781 C 7.84375 669.699219 8.136719 670.082031 8.449219 670.449219 C 8.761719 670.820312 9.09375 671.171875 9.445312 671.503906 C 9.792969 671.839844 10.15625 672.15625 10.539062 672.457031 C 10.917969 672.753906 11.316406 673.03125 11.722656 673.289062 C 12.132812 673.546875 12.554688 673.785156 12.988281 674 C 13.417969 674.21875 13.863281 674.410156 14.316406 674.582031 C 14.765625 674.753906 15.226562 674.902344 15.695312 675.027344 C 16.160156 675.152344 16.632812 675.253906 17.113281 675.328125 C 17.589844 675.40625 18.070312 675.460938 18.550781 675.488281 C 19.035156 675.519531 19.519531 675.523438 20.003906 675.503906 Z M 20.003906 675.503906 " fill-opacity="1" fill-rule="nonzero"/><path fill="#2ea6d1" d="M 20.003906 739.773438 L 789.867188 739.773438 C 790.347656 739.792969 790.832031 739.789062 791.316406 739.761719 C 791.796875 739.730469 792.277344 739.679688 792.757812 739.601562 C 793.234375 739.523438 793.707031 739.421875 794.171875 739.296875 C 794.640625 739.171875 795.101562 739.023438 795.554688 738.851562 C 796.003906 738.679688 796.449219 738.488281 796.882812 738.273438 C 797.3125 738.054688 797.734375 737.820312 798.144531 737.558594 C 798.554688 737.300781 798.949219 737.023438 799.328125 736.726562 C 799.710938 736.425781 800.074219 736.109375 800.425781 735.777344 C 800.773438 735.441406 801.105469 735.089844 801.417969 734.71875 C 801.730469 734.351562 802.027344 733.96875 802.300781 733.570312 C 802.578125 733.171875 802.832031 732.761719 803.0625 732.339844 C 803.296875 731.914062 803.507812 731.480469 803.699219 731.035156 C 803.886719 730.589844 804.054688 730.136719 804.199219 729.675781 C 804.34375 729.210938 804.464844 728.746094 804.558594 728.269531 C 804.65625 727.796875 804.730469 727.320312 804.777344 726.835938 C 804.828125 726.355469 804.851562 725.875 804.851562 725.390625 C 804.851562 724.90625 804.828125 724.421875 804.777344 723.941406 C 804.730469 723.460938 804.65625 722.984375 804.558594 722.507812 C 804.464844 722.035156 804.34375 721.566406 804.199219 721.105469 C 804.054688 720.644531 803.886719 720.191406 803.699219 719.746094 C 803.507812 719.300781 803.296875 718.867188 803.0625 718.441406 C 802.832031 718.019531 802.578125 717.605469 802.300781 717.210938 C 802.027344 716.8125 801.730469 716.429688 801.417969 716.058594 C 801.105469 715.691406 800.773438 715.339844 800.425781 715.003906 C 800.074219 714.667969 799.710938 714.351562 799.328125 714.054688 C 798.949219 713.757812 798.554688 713.476562 798.144531 713.21875 C 797.734375 712.960938 797.3125 712.722656 796.882812 712.507812 C 796.449219 712.292969 796.003906 712.097656 795.554688 711.925781 C 795.101562 711.757812 794.640625 711.609375 794.171875 711.484375 C 793.707031 711.359375 793.234375 711.257812 792.757812 711.179688 C 792.277344 711.101562 791.796875 711.050781 791.316406 711.019531 C 790.832031 710.992188 790.347656 710.988281 789.867188 711.007812 L 20.003906 711.007812 C 19.519531 710.988281 19.035156 710.992188 18.550781 711.019531 C 18.070312 711.050781 17.589844 711.101562 17.113281 711.179688 C 16.632812 711.257812 16.160156 711.359375 15.695312 711.484375 C 15.226562 711.609375 14.765625 711.757812 14.316406 711.925781 C 13.863281 712.097656 13.417969 712.292969 12.988281 712.507812 C 12.554688 712.722656 12.132812 712.960938 11.722656 713.21875 C 11.316406 713.476562 10.917969 713.757812 10.539062 714.054688 C 10.15625 714.351562 9.792969 714.667969 9.445312 715.003906 C 9.09375 715.339844 8.761719 715.691406 8.449219 716.058594 C 8.136719 716.429688 7.84375 716.8125 7.566406 717.210938 C 7.292969 717.605469 7.039062 718.019531 6.804688 718.441406 C 6.570312 718.867188 6.359375 719.300781 6.167969 719.746094 C 5.980469 720.191406 5.8125 720.644531 5.667969 721.105469 C 5.523438 721.566406 5.40625 722.035156 5.308594 722.507812 C 5.210938 722.984375 5.136719 723.460938 5.089844 723.941406 C 5.039062 724.421875 5.015625 724.90625 5.015625 725.390625 C 5.015625 725.875 5.039062 726.355469 5.089844 726.835938 C 5.136719 727.320312 5.210938 727.796875 5.308594 728.269531 C 5.40625 728.746094 5.523438 729.210938 5.667969 729.675781 C 5.8125 730.136719 5.980469 730.589844 6.167969 731.035156 C 6.359375 731.480469 6.570312 731.914062 6.804688 732.339844 C 7.039062 732.761719 7.292969 733.171875 7.566406 733.570312 C 7.84375 733.96875 8.136719 734.351562 8.449219 734.71875 C 8.761719 735.089844 9.09375 735.441406 9.445312 735.777344 C 9.792969 736.109375 10.15625 736.425781 10.539062 736.726562 C 10.917969 737.023438 11.316406 737.300781 11.722656 737.558594 C 12.132812 737.820312 12.554688 738.054688 12.988281 738.273438 C 13.417969 738.488281 13.863281 738.679688 14.316406 738.851562 C 14.765625 739.023438 15.226562 739.171875 15.695312 739.296875 C 16.160156 739.421875 16.632812 739.523438 17.113281 739.601562 C 17.589844 739.679688 18.070312 739.730469 18.550781 739.761719 C 19.035156 739.789062 19.519531 739.792969 20.003906 739.773438 Z M 20.003906 739.773438 " fill-opacity="1" fill-rule="nonzero"/><path fill="#2ea6d1" d="M 224.808594 345.523438 C 227.148438 345.53125 229.355469 344.988281 231.425781 343.898438 C 232.710938 343.167969 233.960938 342.378906 235.175781 341.535156 C 236.390625 340.691406 237.5625 339.792969 238.695312 338.84375 C 239.828125 337.890625 240.914062 336.890625 241.957031 335.84375 C 243 334.792969 243.992188 333.699219 244.933594 332.558594 C 245.878906 331.417969 246.765625 330.242188 247.601562 329.019531 C 248.4375 327.800781 249.21875 326.546875 249.941406 325.253906 C 250.664062 323.964844 251.324219 322.644531 251.929688 321.292969 C 252.53125 319.941406 253.070312 318.566406 253.550781 317.167969 C 254.027344 315.769531 254.441406 314.351562 254.792969 312.914062 C 255.140625 311.476562 255.425781 310.027344 255.644531 308.566406 C 255.863281 307.101562 256.015625 305.632812 256.101562 304.15625 C 256.1875 302.679688 256.203125 301.203125 256.15625 299.726562 C 256.105469 298.246094 255.992188 296.773438 255.808594 295.304688 C 255.628906 293.839844 255.378906 292.382812 255.066406 290.9375 C 254.753906 289.492188 254.375 288.0625 253.929688 286.652344 C 253.488281 285.242188 252.980469 283.855469 252.414062 282.488281 C 252.015625 281.632812 251.539062 280.820312 250.980469 280.058594 C 250.421875 279.292969 249.796875 278.589844 249.101562 277.949219 C 248.402344 277.3125 247.652344 276.746094 246.84375 276.253906 C 246.039062 275.761719 245.191406 275.351562 244.304688 275.027344 C 243.414062 274.703125 242.503906 274.464844 241.570312 274.320312 C 240.636719 274.175781 239.695312 274.121094 238.75 274.160156 C 237.808594 274.199219 236.875 274.332031 235.957031 274.554688 C 235.039062 274.777344 234.148438 275.085938 233.292969 275.484375 C 232.433594 275.882812 231.625 276.359375 230.859375 276.917969 C 230.097656 277.476562 229.394531 278.101562 228.753906 278.796875 C 228.113281 279.492188 227.546875 280.246094 227.054688 281.050781 C 226.5625 281.859375 226.15625 282.707031 225.828125 283.59375 C 225.503906 284.484375 225.269531 285.394531 225.125 286.328125 C 224.976562 287.261719 224.925781 288.203125 224.964844 289.144531 C 225.003906 290.089844 225.132812 291.023438 225.355469 291.941406 C 225.578125 292.859375 225.890625 293.75 226.289062 294.605469 C 226.65625 295.675781 226.9375 296.769531 227.125 297.886719 C 227.3125 299.003906 227.410156 300.128906 227.410156 301.257812 C 227.414062 302.390625 227.320312 303.515625 227.136719 304.632812 C 226.953125 305.75 226.675781 306.84375 226.308594 307.917969 C 225.945312 308.988281 225.492188 310.023438 224.953125 311.019531 C 224.417969 312.015625 223.800781 312.960938 223.105469 313.855469 C 222.410156 314.75 221.648438 315.578125 220.816406 316.347656 C 219.984375 317.113281 219.09375 317.808594 218.144531 318.429688 C 217.433594 318.796875 216.757812 319.21875 216.113281 319.699219 C 215.472656 320.179688 214.875 320.710938 214.324219 321.292969 C 213.769531 321.875 213.269531 322.496094 212.824219 323.160156 C 212.375 323.824219 211.984375 324.519531 211.652344 325.25 C 211.320312 325.980469 211.050781 326.730469 210.84375 327.507812 C 210.640625 328.28125 210.5 329.066406 210.425781 329.867188 C 210.351562 330.664062 210.34375 331.460938 210.402344 332.261719 C 210.460938 333.058594 210.585938 333.847656 210.777344 334.628906 C 210.96875 335.40625 211.222656 336.164062 211.539062 336.898438 C 211.859375 337.632812 212.234375 338.339844 212.671875 339.011719 C 213.105469 339.683594 213.59375 340.316406 214.136719 340.90625 C 214.675781 341.5 215.261719 342.039062 215.894531 342.53125 C 216.527344 343.027344 217.195312 343.460938 217.902344 343.84375 C 218.605469 344.226562 219.339844 344.542969 220.097656 344.804688 C 220.855469 345.0625 221.628906 345.253906 222.421875 345.382812 C 223.210938 345.511719 224.007812 345.574219 224.808594 345.570312 Z M 224.808594 345.523438 " fill-opacity="1" fill-rule="nonzero"/><path fill="#2ea6d1" d="M 258.90625 378.847656 C 261.199219 378.855469 263.363281 378.335938 265.402344 377.292969 C 281.785156 368.980469 295.015625 353.058594 301.753906 333.671875 C 308.492188 314.285156 307.691406 293.539062 299.816406 276.9375 C 299.394531 276.109375 298.902344 275.328125 298.328125 274.59375 C 297.757812 273.863281 297.121094 273.191406 296.421875 272.578125 C 295.71875 271.96875 294.964844 271.433594 294.160156 270.96875 C 293.355469 270.503906 292.511719 270.121094 291.632812 269.820312 C 290.753906 269.519531 289.851562 269.304688 288.929688 269.179688 C 288.011719 269.054688 287.085938 269.015625 286.15625 269.070312 C 285.230469 269.121094 284.316406 269.261719 283.414062 269.492188 C 282.511719 269.722656 281.644531 270.035156 280.804688 270.433594 C 279.964844 270.832031 279.167969 271.308594 278.421875 271.863281 C 277.671875 272.414062 276.984375 273.03125 276.359375 273.71875 C 275.730469 274.402344 275.171875 275.144531 274.6875 275.9375 C 274.203125 276.730469 273.800781 277.5625 273.476562 278.433594 C 273.152344 279.304688 272.917969 280.199219 272.765625 281.117188 C 272.617188 282.035156 272.554688 282.957031 272.585938 283.886719 C 272.613281 284.816406 272.730469 285.734375 272.9375 286.640625 C 273.144531 287.546875 273.433594 288.425781 273.8125 289.273438 C 278.441406 298.96875 278.660156 312.128906 274.515625 324.367188 C 270.371094 336.605469 262.105469 346.832031 252.484375 351.703125 C 251.773438 352.066406 251.09375 352.488281 250.449219 352.96875 C 249.804688 353.445312 249.207031 353.972656 248.648438 354.550781 C 248.09375 355.128906 247.589844 355.75 247.140625 356.414062 C 246.6875 357.074219 246.292969 357.769531 245.957031 358.5 C 245.625 359.226562 245.351562 359.980469 245.140625 360.753906 C 244.929688 361.527344 244.785156 362.3125 244.707031 363.109375 C 244.628906 363.90625 244.617188 364.707031 244.671875 365.507812 C 244.726562 366.308594 244.847656 367.097656 245.035156 367.875 C 245.21875 368.65625 245.472656 369.414062 245.785156 370.152344 C 246.097656 370.890625 246.46875 371.597656 246.902344 372.273438 C 247.335938 372.949219 247.820312 373.585938 248.355469 374.179688 C 248.894531 374.773438 249.476562 375.320312 250.105469 375.816406 C 250.734375 376.3125 251.402344 376.753906 252.105469 377.140625 C 252.808594 377.527344 253.539062 377.851562 254.296875 378.117188 C 255.050781 378.378906 255.824219 378.578125 256.617188 378.714844 C 257.40625 378.847656 258.203125 378.917969 259.003906 378.917969 Z M 258.90625 378.847656 " fill-opacity="1" fill-rule="nonzero"/><path fill="#2ea6d1" d="M 290.265625 411.976562 C 292.332031 411.976562 294.304688 411.546875 296.179688 410.691406 C 319.953125 399.953125 339.078125 377.707031 348.648438 349.644531 C 358.222656 321.578125 356.71875 292.304688 344.503906 269.28125 C 344.050781 268.46875 343.519531 267.707031 342.917969 266.996094 C 342.316406 266.285156 341.648438 265.640625 340.921875 265.058594 C 340.191406 264.476562 339.414062 263.972656 338.585938 263.542969 C 337.761719 263.113281 336.902344 262.765625 336.007812 262.503906 C 335.113281 262.238281 334.203125 262.066406 333.273438 261.980469 C 332.347656 261.890625 331.417969 261.894531 330.492188 261.988281 C 329.566406 262.085938 328.65625 262.265625 327.765625 262.535156 C 326.871094 262.808594 326.015625 263.160156 325.191406 263.597656 C 324.371094 264.035156 323.597656 264.546875 322.871094 265.132812 C 322.148438 265.722656 321.488281 266.371094 320.890625 267.085938 C 320.292969 267.804688 319.773438 268.570312 319.324219 269.386719 C 318.875 270.203125 318.511719 271.054688 318.226562 271.941406 C 317.945312 272.832031 317.75 273.738281 317.644531 274.664062 C 317.535156 275.589844 317.519531 276.515625 317.59375 277.445312 C 317.667969 278.375 317.828125 279.289062 318.078125 280.183594 C 318.328125 281.082031 318.664062 281.945312 319.082031 282.78125 C 327.46875 298.582031 328.339844 320.101562 321.507812 340.359375 C 314.671875 360.621094 300.738281 377.101562 284.425781 384.46875 C 283.683594 384.804688 282.972656 385.203125 282.296875 385.660156 C 281.621094 386.117188 280.988281 386.628906 280.402344 387.195312 C 279.8125 387.761719 279.273438 388.371094 278.789062 389.027344 C 278.304688 389.683594 277.878906 390.378906 277.511719 391.109375 C 277.144531 391.835938 276.84375 392.589844 276.605469 393.371094 C 276.367188 394.152344 276.195312 394.949219 276.089844 395.757812 C 275.988281 396.566406 275.953125 397.378906 275.988281 398.195312 C 276.023438 399.011719 276.128906 399.820312 276.300781 400.617188 C 276.472656 401.414062 276.710938 402.191406 277.015625 402.949219 C 277.320312 403.707031 277.6875 404.433594 278.113281 405.128906 C 278.542969 405.824219 279.027344 406.476562 279.566406 407.089844 C 280.105469 407.703125 280.691406 408.265625 281.328125 408.777344 C 281.960938 409.292969 282.636719 409.746094 283.347656 410.144531 C 284.0625 410.542969 284.800781 410.878906 285.570312 411.152344 C 286.339844 411.421875 287.128906 411.628906 287.933594 411.765625 C 288.738281 411.90625 289.546875 411.972656 290.363281 411.976562 Z M 290.265625 411.976562 " fill-opacity="1" fill-rule="nonzero"/><g clip-path="url(#01460d958c)"><path fill="#2ea6d1" d="M 553.769531 265.792969 L 465.363281 234.285156 C 410.082031 227.71875 370.167969 193.621094 370.167969 152.664062 C 370.167969 106.300781 420.238281 69.949219 484.121094 69.949219 C 548.003906 69.949219 598.023438 106.300781 598.023438 152.734375 C 598.023438 176.558594 584.066406 199 560.121094 214.535156 L 572.042969 247.300781 C 572.511719 248.582031 572.789062 249.90625 572.882812 251.269531 C 572.972656 252.632812 572.871094 253.980469 572.578125 255.3125 C 572.285156 256.648438 571.8125 257.914062 571.160156 259.113281 C 570.507812 260.3125 569.699219 261.394531 568.738281 262.363281 C 567.777344 263.335938 566.699219 264.152344 565.503906 264.8125 C 564.308594 265.476562 563.046875 265.957031 561.714844 266.261719 C 560.382812 266.566406 559.035156 266.675781 557.671875 266.597656 C 556.308594 266.515625 554.984375 266.25 553.699219 265.792969 Z M 398.960938 152.734375 C 398.960938 178.765625 429.640625 201.617188 470.355469 206.050781 C 471.871094 206.222656 473.324219 206.617188 474.71875 207.238281 L 534.648438 228.445312 L 529.078125 212.933594 C 528.777344 212.113281 528.550781 211.269531 528.40625 210.40625 C 528.257812 209.542969 528.191406 208.675781 528.203125 207.800781 C 528.21875 206.925781 528.308594 206.058594 528.480469 205.199219 C 528.652344 204.339844 528.898438 203.503906 529.222656 202.691406 C 529.546875 201.878906 529.941406 201.101562 530.40625 200.359375 C 530.871094 199.617188 531.398438 198.925781 531.992188 198.28125 C 532.585938 197.636719 533.230469 197.050781 533.929688 196.523438 C 534.628906 195.996094 535.371094 195.539062 536.152344 195.148438 C 556.945312 184.75 569.355469 168.902344 569.355469 152.6875 C 569.355469 123.414062 530.359375 98.691406 484.167969 98.691406 C 437.976562 98.691406 398.960938 123.460938 398.960938 152.734375 Z M 398.960938 152.734375 " fill-opacity="1" fill-rule="nonzero"/></g><path fill="#2ea6d1" d="M 446.265625 167.472656 L 523.816406 167.472656 C 524.300781 167.492188 524.785156 167.484375 525.265625 167.457031 C 525.75 167.429688 526.230469 167.375 526.707031 167.296875 C 527.183594 167.222656 527.65625 167.121094 528.125 166.996094 C 528.59375 166.871094 529.050781 166.722656 529.503906 166.550781 C 529.957031 166.378906 530.398438 166.183594 530.832031 165.96875 C 531.265625 165.753906 531.6875 165.515625 532.097656 165.257812 C 532.503906 165 532.898438 164.722656 533.28125 164.421875 C 533.660156 164.125 534.027344 163.808594 534.375 163.472656 C 534.726562 163.136719 535.054688 162.785156 535.371094 162.417969 C 535.683594 162.050781 535.976562 161.667969 536.253906 161.269531 C 536.527344 160.871094 536.78125 160.460938 537.015625 160.035156 C 537.25 159.613281 537.460938 159.175781 537.648438 158.734375 C 537.839844 158.289062 538.007812 157.835938 538.152344 157.371094 C 538.292969 156.910156 538.414062 156.441406 538.511719 155.96875 C 538.609375 155.496094 538.679688 155.015625 538.730469 154.535156 C 538.777344 154.054688 538.804688 153.570312 538.804688 153.085938 C 538.804688 152.605469 538.777344 152.121094 538.730469 151.640625 C 538.679688 151.160156 538.609375 150.679688 538.511719 150.207031 C 538.414062 149.734375 538.292969 149.265625 538.152344 148.804688 C 538.007812 148.339844 537.839844 147.886719 537.648438 147.441406 C 537.460938 146.996094 537.25 146.5625 537.015625 146.140625 C 536.78125 145.714844 536.527344 145.304688 536.253906 144.90625 C 535.976562 144.507812 535.683594 144.125 535.371094 143.757812 C 535.054688 143.386719 534.726562 143.035156 534.375 142.703125 C 534.027344 142.367188 533.660156 142.050781 533.28125 141.75 C 532.898438 141.453125 532.503906 141.175781 532.097656 140.917969 C 531.6875 140.660156 531.265625 140.421875 530.832031 140.207031 C 530.398438 139.988281 529.957031 139.796875 529.503906 139.625 C 529.050781 139.453125 528.59375 139.304688 528.125 139.179688 C 527.65625 139.054688 527.183594 138.953125 526.707031 138.878906 C 526.230469 138.800781 525.75 138.746094 525.265625 138.71875 C 524.785156 138.6875 524.300781 138.683594 523.816406 138.703125 L 446.265625 138.703125 C 445.347656 138.742188 444.4375 138.867188 443.542969 139.078125 C 442.648438 139.289062 441.78125 139.585938 440.941406 139.964844 C 440.101562 140.34375 439.308594 140.796875 438.554688 141.328125 C 437.804688 141.859375 437.109375 142.457031 436.472656 143.121094 C 435.832031 143.785156 435.265625 144.503906 434.765625 145.273438 C 434.265625 146.046875 433.84375 146.863281 433.5 147.714844 C 433.15625 148.570312 432.898438 149.449219 432.722656 150.351562 C 432.550781 151.253906 432.460938 152.167969 432.460938 153.085938 C 432.460938 154.007812 432.550781 154.917969 432.722656 155.824219 C 432.898438 156.726562 433.15625 157.605469 433.5 158.460938 C 433.84375 159.3125 434.265625 160.128906 434.765625 160.898438 C 435.265625 161.671875 435.832031 162.390625 436.472656 163.054688 C 437.109375 163.71875 437.804688 164.316406 438.554688 164.847656 C 439.308594 165.378906 440.101562 165.832031 440.941406 166.210938 C 441.78125 166.589844 442.648438 166.882812 443.542969 167.097656 C 444.4375 167.308594 445.347656 167.433594 446.265625 167.472656 Z M 446.265625 167.472656 " fill-opacity="1" fill-rule="nonzero"/></svg>