<svg xmlns="http://www.w3.org/2000/svg" xmlns:xlink="http://www.w3.org/1999/xlink" width="1080" zoomAndPan="magnify" viewBox="0 0 810 809.999993" height="1080" preserveAspectRatio="xMidYMid meet" version="1.0"><defs><clipPath id="363039cedc"><path d="M 29.804688 70 L 780.554688 70 L 780.554688 740 L 29.804688 740 Z M 29.804688 70 " clip-rule="nonzero"/></clipPath></defs><g clip-path="url(#363039cedc)"><path fill="#2ea6d1" d="M 255.167969 691.082031 L 255.167969 563.425781 C 255.167969 536.515625 233.191406 514.535156 206.277344 514.535156 L 151.039062 514.535156 C 150.199219 514.535156 149.519531 513.855469 149.519531 513.015625 L 149.519531 472.554688 C 149.519531 463.664062 156.796875 456.386719 165.691406 456.386719 L 257.269531 456.386719 C 278.761719 456.386719 296.257812 438.882812 296.257812 417.398438 L 296.257812 243.753906 C 296.257812 242.476562 294.777344 241.769531 293.785156 242.566406 L 274.007812 258.488281 C 273.636719 258.785156 273.441406 259.195312 273.441406 259.671875 L 273.441406 417.398438 C 273.441406 426.289062 266.164062 433.570312 257.269531 433.570312 L 165.691406 433.570312 C 144.203125 433.570312 126.703125 451.066406 126.703125 472.554688 L 126.703125 513.015625 C 126.703125 513.855469 126.019531 514.535156 125.183594 514.535156 L 78.625 514.535156 C 51.710938 514.535156 29.734375 536.515625 29.734375 563.425781 L 29.734375 691.082031 C 29.734375 717.992188 51.710938 739.972656 78.625 739.972656 L 206.277344 739.972656 C 233.191406 739.972656 255.167969 717.992188 255.167969 691.082031 Z M 398.125 129.171875 C 396.867188 128.164062 395.246094 128.253906 393.960938 129.296875 L 125.757812 345.210938 C 124.761719 346.011719 123.28125 345.304688 123.28125 344.027344 L 123.28125 301.523438 C 123.28125 293.390625 126.460938 286.675781 132.804688 281.570312 L 395.164062 70.359375 C 395.726562 69.90625 396.507812 69.90625 397.074219 70.359375 L 659.433594 281.570312 C 665.777344 286.675781 668.957031 293.390625 668.957031 301.523438 L 668.957031 344.027344 C 668.957031 345.304688 667.476562 346.011719 666.480469 345.210938 Z M 396.121094 684.347656 C 328.007812 684.347656 272.789062 629.128906 272.789062 561.015625 C 272.789062 497.484375 320.972656 444.757812 383.347656 438.339844 C 384.125 438.261719 384.710938 437.609375 384.710938 436.828125 L 384.710938 170.097656 C 384.710938 169.621094 384.90625 169.210938 385.277344 168.914062 L 393.960938 161.925781 C 395.246094 160.878906 396.867188 160.789062 398.125 161.800781 L 406.960938 168.914062 C 407.332031 169.210938 407.527344 169.621094 407.527344 170.097656 L 407.527344 436.828125 C 407.527344 437.609375 408.113281 438.261719 408.890625 438.339844 C 471.265625 444.757812 519.449219 497.480469 519.449219 561.015625 C 519.449219 629.128906 464.230469 684.347656 396.121094 684.347656 Z M 450.015625 629.328125 C 450.015625 599.683594 425.761719 575.429688 396.121094 575.429688 C 366.476562 575.429688 342.222656 599.683594 342.222656 629.328125 L 342.222656 645.035156 C 342.222656 645.574219 342.480469 646.039062 342.9375 646.324219 C 375.410156 666.609375 416.828125 666.609375 449.300781 646.324219 C 449.757812 646.039062 450.015625 645.574219 450.015625 645.035156 Z M 428.972656 529.800781 C 428.972656 511.65625 414.261719 496.949219 396.121094 496.949219 C 377.976562 496.949219 363.269531 511.65625 363.269531 529.800781 C 363.269531 547.945312 377.976562 562.652344 396.121094 562.652344 C 414.261719 562.652344 428.972656 547.945312 428.972656 529.800781 Z M 530.066406 706.042969 C 530.066406 711.839844 531.621094 717.625 534.726562 723.007812 L 534.746094 722.996094 C 540.910156 733.648438 551.828125 739.972656 564.082031 739.972656 L 746.089844 739.972656 C 765.238281 739.972656 780.058594 724.308594 780.058594 706.042969 L 780.101562 706.042969 C 780.101562 700.246094 778.546875 694.460938 775.441406 689.078125 L 684.4375 531.453125 C 680.351562 524.375 674.0625 519.125 666.546875 516.449219 C 665.929688 516.230469 665.535156 515.671875 665.535156 515.019531 L 665.535156 472.558594 C 665.535156 451.070312 648.035156 433.570312 626.550781 433.570312 L 534.96875 433.570312 C 526.078125 433.570312 518.796875 426.292969 518.796875 417.398438 L 518.796875 259.675781 C 518.796875 259.199219 518.601562 258.789062 518.230469 258.488281 L 498.457031 242.570312 C 497.460938 241.769531 495.980469 242.476562 495.980469 243.753906 L 495.980469 417.398438 C 495.980469 438.882812 513.480469 456.386719 534.96875 456.386719 L 626.550781 456.386719 C 635.441406 456.386719 642.722656 463.667969 642.722656 472.558594 L 642.722656 515.765625 C 642.722656 516.386719 642.367188 516.921875 641.792969 517.164062 C 635.078125 520.011719 629.484375 524.957031 625.730469 531.453125 L 534.726562 689.078125 L 534.746094 689.089844 C 531.632812 694.417969 530.066406 700.320312 530.066406 706.042969 Z M 707.460938 717.15625 L 602.710938 717.15625 C 601.871094 717.15625 601.191406 716.472656 601.191406 715.636719 L 601.191406 709.175781 C 601.191406 679.53125 625.445312 655.277344 655.085938 655.277344 C 684.726562 655.277344 708.980469 679.53125 708.980469 709.175781 L 708.980469 715.636719 C 708.980469 716.472656 708.296875 717.15625 707.460938 717.15625 Z M 687.9375 609.648438 C 687.9375 627.789062 673.230469 642.5 655.085938 642.5 C 636.941406 642.5 622.230469 627.789062 622.230469 609.648438 C 622.230469 591.503906 636.941406 576.796875 655.085938 576.796875 C 673.230469 576.796875 687.9375 591.503906 687.9375 609.648438 Z M 142.449219 635.617188 C 172.09375 635.617188 196.34375 659.871094 196.34375 689.511719 L 196.34375 715.636719 C 196.34375 716.472656 195.664062 717.15625 194.824219 717.15625 L 90.074219 717.15625 C 89.238281 717.15625 88.554688 716.472656 88.554688 715.636719 L 88.554688 689.511719 C 88.554688 659.871094 112.808594 635.617188 142.449219 635.617188 Z M 142.453125 557.132812 C 160.59375 557.132812 175.304688 571.839844 175.304688 589.984375 C 175.304688 608.128906 160.59375 622.835938 142.453125 622.835938 C 124.308594 622.835938 109.597656 608.128906 109.597656 589.984375 C 109.597656 571.839844 124.308594 557.132812 142.453125 557.132812 Z M 142.453125 557.132812 " fill-opacity="1" fill-rule="evenodd"/></g></svg>