<svg xmlns="http://www.w3.org/2000/svg" xmlns:xlink="http://www.w3.org/1999/xlink" width="1080" zoomAndPan="magnify" viewBox="0 0 810 809.999993" height="1080" preserveAspectRatio="xMidYMid meet" version="1.0"><defs><clipPath id="5305439f9a"><path d="M 502 442 L 737.449219 442 L 737.449219 740.164062 L 502 740.164062 Z M 502 442 " clip-rule="nonzero"/></clipPath><clipPath id="87e3b38504"><path d="M 72 442 L 255 442 L 255 740.328125 L 72 740.328125 Z M 72 442 " clip-rule="nonzero"/></clipPath><clipPath id="a9521add87"><path d="M 344 430 L 528 430 L 528 740.328125 L 344 740.328125 Z M 344 430 " clip-rule="nonzero"/></clipPath><clipPath id="8fef1c75a4"><path d="M 72 717 L 528 717 L 528 740.328125 L 72 740.328125 Z M 72 717 " clip-rule="nonzero"/></clipPath><clipPath id="c3ac8e75f8"><path d="M 227 69.828125 L 371 69.828125 L 371 143 L 227 143 Z M 227 69.828125 " clip-rule="nonzero"/></clipPath><clipPath id="cee99b5991"><path d="M 288 629 L 311 629 L 311 740.328125 L 288 740.328125 Z M 288 629 " clip-rule="nonzero"/></clipPath><clipPath id="e0f6b5a259"><path d="M 125 672 L 148 672 L 148 740.328125 L 125 740.328125 Z M 125 672 " clip-rule="nonzero"/></clipPath><clipPath id="64e981169e"><path d="M 442 672 L 466 672 L 466 740.328125 L 442 740.328125 Z M 442 672 " clip-rule="nonzero"/></clipPath><clipPath id="9f032c141c"><path d="M 555 86 L 737.449219 86 L 737.449219 428 L 555 428 Z M 555 86 " clip-rule="nonzero"/></clipPath></defs><g clip-path="url(#5305439f9a)"><path fill="#2ea6d1" d="M 514.222656 580.195312 C 512.4375 580.195312 510.59375 579.78125 508.867188 578.886719 C 503.390625 575.910156 501.308594 569.128906 504.285156 563.59375 L 565.878906 448.4375 C 568.792969 442.964844 575.636719 440.820312 581.113281 443.796875 L 619.796875 464.507812 C 625.269531 467.421875 627.351562 474.265625 624.4375 479.742188 C 621.460938 485.277344 614.675781 487.359375 609.144531 484.382812 L 580.457031 469.03125 L 524.160156 574.246094 C 522.136719 578.054688 518.210938 580.195312 514.222656 580.195312 Z M 622.53125 740.164062 C 620.628906 740.164062 618.84375 739.6875 617.175781 738.855469 L 538.742188 696.71875 C 533.207031 693.804688 531.183594 686.960938 534.097656 681.425781 C 537.074219 675.949219 543.859375 673.867188 549.394531 676.84375 L 617.832031 713.5625 L 710.90625 538.480469 L 682.28125 523.480469 C 676.746094 520.566406 674.664062 513.78125 677.519531 508.246094 C 680.4375 502.710938 687.222656 500.570312 692.757812 503.488281 L 731.4375 523.71875 C 734.058594 525.148438 736.082031 527.527344 736.972656 530.386719 C 737.867188 533.300781 737.570312 536.394531 736.140625 539.015625 L 632.472656 734.210938 C 631.042969 736.832031 628.664062 738.792969 625.804688 739.6875 C 624.675781 739.984375 623.605469 740.164062 622.472656 740.164062 L 622.53125 740.164062 " fill-opacity="1" fill-rule="nonzero"/></g><path fill="#2ea6d1" d="M 622.117188 483.964844 L 675.261719 512.355469 L 679.902344 503.605469 L 626.757812 475.515625 Z M 679.902344 538.894531 C 678.058594 538.894531 676.210938 538.480469 674.605469 537.585938 L 601.527344 498.546875 C 598.847656 497.117188 596.882812 494.738281 595.992188 491.882812 C 595.15625 488.964844 595.457031 485.871094 596.882812 483.253906 L 612.179688 454.925781 C 615.09375 449.449219 621.9375 447.425781 627.351562 450.285156 L 700.433594 488.964844 C 703.109375 490.335938 705.074219 492.773438 705.96875 495.632812 C 706.859375 498.488281 706.5625 501.582031 705.132812 504.261719 L 689.839844 532.945312 C 688.410156 535.5625 686.03125 537.585938 683.175781 538.417969 C 682.105469 538.777344 680.972656 538.894531 679.902344 538.894531 " fill-opacity="1" fill-rule="nonzero"/><path fill="#2ea6d1" d="M 654.609375 585.550781 C 652.824219 585.550781 651.039062 585.195312 649.3125 584.304688 L 577.421875 546.035156 C 571.890625 543.0625 569.804688 536.21875 572.722656 530.742188 C 575.699219 525.265625 582.480469 523.183594 588.015625 526.101562 L 659.90625 564.367188 C 665.441406 567.28125 667.523438 574.066406 664.609375 579.601562 C 662.585938 583.410156 658.65625 585.550781 654.609375 585.550781 " fill-opacity="1" fill-rule="nonzero"/><path fill="#2ea6d1" d="M 630.148438 631.496094 C 628.363281 631.496094 626.519531 631.078125 624.855469 630.1875 L 552.90625 591.921875 C 547.429688 588.945312 545.347656 582.160156 548.261719 576.625 C 551.179688 571.152344 558.023438 569.066406 563.496094 571.984375 L 635.445312 610.25 C 640.921875 613.164062 643.003906 620.007812 640.089844 625.542969 C 638.066406 629.351562 634.195312 631.496094 630.148438 631.496094 " fill-opacity="1" fill-rule="nonzero"/><path fill="#2ea6d1" d="M 605.632812 677.378906 C 603.847656 677.378906 602.0625 676.960938 600.394531 676.070312 L 536.0625 642.089844 C 530.585938 639.113281 528.503906 632.269531 531.421875 626.792969 C 534.335938 621.320312 541.121094 619.234375 546.65625 622.09375 L 610.929688 656.132812 C 616.460938 659.050781 618.546875 665.894531 615.628906 671.425781 C 613.605469 675.234375 609.679688 677.378906 605.632812 677.378906 " fill-opacity="1" fill-rule="nonzero"/><path fill="#2ea6d1" d="M 298.792969 481.109375 C 211.785156 481.109375 183.339844 355.601562 180.421875 289.007812 C 180.125 282.757812 184.945312 277.460938 191.195312 277.222656 C 197.207031 276.984375 202.679688 281.746094 202.976562 287.996094 C 205.835938 354.054688 234.398438 458.554688 298.851562 458.554688 L 299.445312 458.554688 C 365.207031 457.839844 393.710938 353.398438 396.210938 287.699219 C 396.449219 281.449219 401.925781 276.808594 407.875 276.808594 C 414.125 277.046875 419.003906 282.28125 418.765625 288.53125 C 415.789062 365.480469 381.691406 480.277344 299.683594 481.109375 C 299.386719 481.109375 299.089844 481.109375 298.792969 481.109375 " fill-opacity="1" fill-rule="nonzero"/><g clip-path="url(#87e3b38504)"><path fill="#2ea6d1" d="M 83.417969 740.164062 C 77.171875 740.164062 72.113281 735.105469 72.113281 728.855469 C 72.113281 656.074219 88.539062 589.597656 117.222656 546.574219 C 133.707031 521.933594 158.105469 518.125 179.707031 514.851562 C 197.5625 512.117188 212.976562 509.675781 224.222656 497.117188 C 233.210938 487.539062 232.375 467.421875 231.363281 444.214844 L 242.554688 442.664062 L 253.859375 442.191406 C 255.109375 471.589844 256.179688 496.105469 240.828125 512.414062 C 224.34375 530.800781 202.441406 534.136719 183.160156 537.109375 C 163.761719 540.144531 146.976562 542.703125 136.027344 559.128906 C 109.78125 598.527344 94.667969 660.417969 94.667969 728.855469 C 94.667969 735.105469 89.609375 740.164062 83.417969 740.164062 " fill-opacity="1" fill-rule="nonzero"/></g><g clip-path="url(#a9521add87)"><path fill="#2ea6d1" d="M 516.125 740.164062 C 509.878906 740.164062 504.820312 735.105469 504.820312 728.855469 C 504.820312 660.773438 489.644531 598.941406 463.101562 559.128906 C 452.152344 542.703125 435.488281 540.144531 416.089844 537.109375 C 396.804688 534.136719 374.964844 530.800781 358.183594 512.234375 C 342.589844 495.691406 344.078125 469.265625 345.6875 441.296875 C 346.042969 435.046875 351.339844 430.226562 357.589844 430.644531 C 363.835938 431 368.597656 436.359375 368.242188 442.546875 C 366.871094 465.578125 365.683594 487.300781 374.726562 496.941406 C 386.332031 509.675781 401.746094 512.054688 419.539062 514.851562 C 441.082031 518.125 465.421875 521.933594 481.90625 546.574219 C 510.832031 590.015625 527.375 656.429688 527.375 728.914062 C 527.433594 735.105469 522.375 740.164062 516.125 740.164062 " fill-opacity="1" fill-rule="nonzero"/></g><g clip-path="url(#8fef1c75a4)"><path fill="#2ea6d1" d="M 516.125 740.164062 L 83.417969 740.164062 C 77.171875 740.164062 72.113281 735.105469 72.113281 728.855469 C 72.113281 722.667969 77.171875 717.609375 83.417969 717.609375 L 516.125 717.609375 C 522.375 717.609375 527.433594 722.667969 527.433594 728.855469 C 527.433594 735.105469 522.375 740.164062 516.125 740.164062 " fill-opacity="1" fill-rule="nonzero"/></g><path fill="#2ea6d1" d="M 407.101562 305.136719 C 376.097656 305.136719 356.21875 290.257812 335.210938 274.546875 C 331.582031 271.808594 327.832031 269.070312 323.964844 266.273438 C 267.546875 226.402344 218.75 273.59375 200.359375 295.730469 C 196.371094 300.492188 189.230469 301.148438 184.46875 297.160156 C 179.648438 293.171875 178.996094 286.089844 182.980469 281.269531 C 229.578125 225.152344 287.1875 212.65625 337.058594 247.886719 C 341.105469 250.800781 344.972656 253.65625 348.722656 256.453125 C 368.179688 271.035156 383.65625 282.582031 407.101562 282.582031 C 413.289062 282.582031 418.347656 287.578125 418.347656 293.828125 C 418.347656 300.078125 413.289062 305.136719 407.101562 305.136719 " fill-opacity="1" fill-rule="nonzero"/><path fill="#2ea6d1" d="M 191.671875 299.777344 C 187.445312 299.777344 183.339844 297.339844 181.433594 293.234375 C 158.226562 243.183594 157.152344 197.242188 178.398438 163.914062 C 199.941406 130.171875 243.027344 111.542969 299.566406 111.542969 C 305.8125 111.542969 310.871094 116.601562 310.871094 122.792969 C 310.871094 129.039062 305.8125 134.097656 299.566406 134.097656 C 250.945312 134.097656 214.703125 149.035156 197.441406 176.054688 C 180.421875 202.65625 182.03125 240.921875 201.90625 283.710938 C 204.523438 289.363281 202.085938 296.089844 196.429688 298.707031 C 194.882812 299.421875 193.277344 299.777344 191.671875 299.777344 " fill-opacity="1" fill-rule="nonzero"/><path fill="#2ea6d1" d="M 407.457031 299.421875 C 405.851562 299.421875 404.246094 299.066406 402.699219 298.351562 C 397.105469 295.730469 394.605469 289.066406 397.222656 283.355469 C 417.039062 240.566406 418.585938 202.417969 401.6875 175.996094 C 384.429688 148.976562 348.007812 134.097656 299.207031 134.097656 C 292.960938 134.097656 287.902344 129.039062 287.902344 122.851562 C 287.902344 116.601562 292.960938 111.542969 299.207031 111.542969 C 355.980469 111.542969 399.128906 130.113281 420.730469 163.855469 C 441.914062 197.003906 440.84375 242.828125 417.695312 292.875 C 415.789062 296.980469 411.742188 299.421875 407.457031 299.421875 " fill-opacity="1" fill-rule="nonzero"/><g clip-path="url(#c3ac8e75f8)"><path fill="#2ea6d1" d="M 240.230469 142.550781 C 235.351562 142.550781 230.828125 139.277344 229.402344 134.335938 C 228.390625 130.765625 227.855469 126.660156 227.855469 122.792969 C 227.855469 93.097656 259.15625 69.828125 299.207031 69.828125 C 339.4375 69.828125 370.917969 93.097656 370.917969 122.792969 C 370.917969 125.46875 370.859375 128.148438 370.324219 130.765625 C 369.074219 136.898438 363.183594 140.882812 357.054688 139.632812 C 350.921875 138.382812 346.9375 132.433594 348.1875 126.363281 C 348.421875 125.171875 348.363281 123.984375 348.363281 122.792969 C 348.363281 106.308594 325.808594 92.382812 299.207031 92.382812 C 272.726562 92.382812 250.410156 106.308594 250.410156 122.792969 C 250.410156 124.578125 250.644531 126.542969 251.121094 128.148438 C 252.789062 134.160156 249.335938 140.40625 243.328125 142.074219 C 242.316406 142.371094 241.304688 142.550781 240.230469 142.550781 " fill-opacity="1" fill-rule="nonzero"/></g><path fill="#2ea6d1" d="M 243.386719 601.800781 L 275.226562 616.675781 L 236.125 537.289062 L 227.792969 570.851562 L 239.757812 572.757812 C 243.089844 573.234375 246.003906 575.257812 247.730469 578.171875 C 249.457031 581.089844 249.753906 584.601562 248.5625 587.8125 Z M 299.566406 651.789062 C 297.957031 651.789062 296.351562 651.429688 294.804688 650.71875 L 224.402344 617.808594 C 219.046875 615.308594 216.546875 609.179688 218.570312 603.644531 L 222.617188 592.871094 L 212.082031 591.148438 C 208.988281 590.671875 206.191406 588.886719 204.464844 586.265625 C 202.679688 583.589844 202.144531 580.375 202.917969 577.28125 L 221.664062 501.9375 C 222.796875 497.355469 226.722656 493.964844 231.425781 493.429688 C 236.066406 492.832031 240.648438 495.394531 242.730469 499.675781 L 309.683594 635.484375 C 311.824219 639.765625 310.992188 644.945312 307.660156 648.398438 C 305.457031 650.597656 302.539062 651.789062 299.566406 651.789062 " fill-opacity="1" fill-rule="nonzero"/><path fill="#2ea6d1" d="M 363.003906 537.289062 L 323.90625 616.675781 L 355.921875 601.738281 L 350.921875 587.636719 C 349.792969 584.480469 350.148438 580.96875 351.816406 578.113281 C 353.542969 575.257812 356.457031 573.234375 359.730469 572.757812 L 371.335938 570.851562 Z M 299.566406 651.789062 C 296.589844 651.789062 293.671875 650.597656 291.53125 648.398438 C 288.136719 644.945312 287.304688 639.828125 289.449219 635.484375 L 356.398438 499.675781 C 358.480469 495.394531 363.0625 492.832031 367.765625 493.429688 C 372.464844 493.964844 376.335938 497.355469 377.464844 501.9375 L 396.210938 577.28125 C 396.984375 580.375 396.449219 583.589844 394.722656 586.265625 C 392.9375 588.886719 390.199219 590.671875 387.105469 591.148438 L 376.75 592.871094 L 380.621094 603.824219 C 382.582031 609.296875 380.023438 615.367188 374.726562 617.808594 L 304.386719 650.71875 C 302.839844 651.429688 301.171875 651.789062 299.566406 651.789062 " fill-opacity="1" fill-rule="nonzero"/><path fill="#2ea6d1" d="M 299.566406 539.074219 C 273.082031 539.074219 246.601562 530.503906 225.53125 513.425781 C 220.652344 509.496094 219.9375 502.414062 223.808594 497.59375 C 227.792969 492.714844 234.875 491.941406 239.695312 495.929688 C 273.855469 523.542969 325.273438 523.542969 359.433594 495.929688 C 364.253906 491.941406 371.394531 492.714844 375.324219 497.59375 C 379.191406 502.414062 378.476562 509.496094 373.597656 513.425781 C 352.53125 530.503906 326.046875 539.074219 299.566406 539.074219 " fill-opacity="1" fill-rule="nonzero"/><g clip-path="url(#cee99b5991)"><path fill="#2ea6d1" d="M 299.566406 740.164062 C 293.316406 740.164062 288.257812 735.105469 288.257812 728.855469 L 288.257812 640.480469 C 288.257812 634.234375 293.316406 629.234375 299.566406 629.234375 C 305.8125 629.234375 310.871094 634.234375 310.871094 640.480469 L 310.871094 728.855469 C 310.871094 735.105469 305.8125 740.164062 299.566406 740.164062 " fill-opacity="1" fill-rule="nonzero"/></g><g clip-path="url(#e0f6b5a259)"><path fill="#2ea6d1" d="M 136.5625 740.164062 C 130.375 740.164062 125.316406 735.105469 125.316406 728.855469 L 125.316406 683.328125 C 125.316406 677.082031 130.375 672.082031 136.5625 672.082031 C 142.8125 672.082031 147.871094 677.082031 147.871094 683.328125 L 147.871094 728.855469 C 147.871094 735.105469 142.8125 740.164062 136.5625 740.164062 " fill-opacity="1" fill-rule="nonzero"/></g><g clip-path="url(#64e981169e)"><path fill="#2ea6d1" d="M 454.117188 740.164062 C 447.925781 740.164062 442.867188 735.105469 442.867188 728.855469 L 442.867188 683.328125 C 442.867188 677.082031 447.925781 672.082031 454.117188 672.082031 C 460.363281 672.082031 465.421875 677.082031 465.421875 683.328125 L 465.421875 728.855469 C 465.421875 735.105469 460.363281 740.164062 454.117188 740.164062 " fill-opacity="1" fill-rule="nonzero"/></g><path fill="#2ea6d1" d="M 452.269531 181.589844 C 448.105469 181.589844 444.117188 179.269531 442.152344 175.28125 C 439.355469 169.746094 441.617188 162.960938 447.210938 160.164062 C 448.164062 159.6875 449.175781 159.214844 450.1875 158.855469 C 451.257812 134.097656 470.066406 114.28125 493.273438 113.449219 C 500.476562 97.082031 515.828125 86.253906 533.386719 86.253906 C 557.902344 86.253906 577.898438 107.617188 577.898438 133.921875 C 577.898438 140.167969 572.902344 145.226562 566.652344 145.226562 C 560.402344 145.226562 555.34375 140.167969 555.34375 133.921875 C 555.34375 120.113281 545.464844 108.867188 533.386719 108.867188 C 523.328125 108.867188 514.640625 116.664062 512.257812 127.851562 C 511.007812 133.742188 505.355469 137.671875 499.34375 136.660156 C 497.203125 136.242188 496.070312 136.003906 494.703125 136.003906 C 482.5625 136.003906 472.683594 147.25 472.683594 161.058594 C 472.683594 162.722656 472.683594 164.035156 472.921875 165.640625 C 473.457031 168.734375 472.683594 171.890625 470.839844 174.386719 C 468.933594 176.886719 466.136719 178.496094 463.042969 178.792969 C 460.660156 179.089844 458.9375 179.566406 457.269531 180.339844 C 455.664062 181.171875 453.9375 181.589844 452.269531 181.589844 Z M 533.386719 427.964844 C 521.421875 427.964844 510.355469 422.96875 502.261719 414.160156 C 497.261719 416.183594 491.90625 417.253906 486.3125 417.253906 C 468.042969 417.253906 451.855469 405.234375 445.128906 387.675781 C 434.417969 386.011719 424.597656 380.238281 417.398438 371.3125 C 413.527344 366.433594 414.300781 359.351562 419.183594 355.421875 C 424.0625 351.496094 431.144531 352.328125 435.070312 357.207031 C 439.238281 362.445312 445.367188 365.597656 451.496094 365.597656 L 453.757812 365.597656 C 459.234375 365.597656 463.875 369.46875 464.886719 374.824219 C 467.03125 386.308594 476.015625 394.640625 486.3125 394.640625 C 490.894531 394.640625 495 393.269531 498.453125 390.535156 C 501.070312 388.511719 504.402344 387.738281 507.675781 388.390625 C 510.890625 389.046875 513.6875 391.070312 515.292969 393.984375 C 519.28125 401.125 526.003906 405.351562 533.386719 405.351562 C 545.464844 405.351562 555.34375 394.105469 555.34375 380.296875 C 555.34375 374.050781 560.402344 369.050781 566.652344 369.050781 C 572.902344 369.050781 577.898438 374.050781 577.898438 380.296875 C 577.898438 406.601562 557.902344 427.964844 533.386719 427.964844 " fill-opacity="1" fill-rule="nonzero"/><path fill="#2ea6d1" d="M 566.652344 391.605469 C 560.402344 391.605469 555.34375 386.546875 555.34375 380.296875 L 555.34375 133.921875 C 555.34375 127.671875 560.402344 122.613281 566.652344 122.613281 C 572.902344 122.613281 577.898438 127.671875 577.898438 133.921875 L 577.898438 380.296875 C 577.898438 386.546875 572.902344 391.605469 566.652344 391.605469 " fill-opacity="1" fill-rule="nonzero"/><path fill="#2ea6d1" d="M 463.339844 228.246094 C 461.851562 228.246094 460.363281 227.949219 458.9375 227.292969 C 458.222656 227.054688 456.914062 226.699219 454.53125 226.699219 C 448.285156 226.699219 443.226562 221.640625 443.226562 215.390625 C 443.226562 209.203125 448.285156 204.144531 454.53125 204.144531 C 459.589844 204.144531 463.933594 204.917969 467.742188 206.585938 C 473.515625 209.023438 476.136719 215.628906 473.695312 221.402344 C 471.910156 225.628906 467.683594 228.246094 463.339844 228.246094 " fill-opacity="1" fill-rule="nonzero"/><path fill="#2ea6d1" d="M 453.757812 388.152344 C 448.285156 388.152344 443.464844 384.167969 442.628906 378.632812 C 441.679688 372.441406 445.902344 366.667969 452.03125 365.71875 C 460.304688 364.410156 466.96875 358.875 469.410156 351.195312 C 471.375 345.304688 477.683594 342.03125 483.632812 343.9375 C 489.585938 345.839844 492.859375 352.207031 490.894531 358.160156 C 485.835938 373.988281 472.265625 385.414062 455.484375 388.035156 C 454.949219 388.09375 454.355469 388.152344 453.757812 388.152344 " fill-opacity="1" fill-rule="nonzero"/><path fill="#2ea6d1" d="M 566.652344 284.839844 C 561.890625 284.839844 557.488281 281.867188 555.941406 277.105469 C 553.203125 268.953125 545.40625 263.179688 536.539062 262.644531 C 530.289062 262.285156 525.53125 256.929688 525.886719 250.742188 C 526.242188 244.492188 531.660156 239.851562 537.847656 240.089844 C 555.878906 241.160156 571.710938 253.121094 577.363281 270.023438 C 579.328125 275.914062 576.113281 282.34375 570.222656 284.304688 C 569.03125 284.664062 567.84375 284.839844 566.652344 284.839844 " fill-opacity="1" fill-rule="nonzero"/><path fill="#2ea6d1" d="M 507.320312 316.203125 C 505.949219 316.203125 504.460938 315.964844 503.09375 315.371094 C 483.753906 307.574219 469.230469 291.746094 463.222656 271.867188 C 461.4375 265.917969 464.828125 259.609375 470.777344 257.824219 C 476.789062 255.980469 483.039062 259.371094 484.824219 265.320312 C 488.871094 278.59375 498.628906 289.246094 511.542969 294.484375 C 517.375 296.804688 520.113281 303.410156 517.792969 309.183594 C 516.007812 313.585938 511.78125 316.203125 507.320312 316.203125 " fill-opacity="1" fill-rule="nonzero"/><path fill="#2ea6d1" d="M 468.339844 309.359375 C 464.351562 309.359375 460.484375 307.277344 458.460938 303.527344 C 455.425781 298.054688 457.390625 291.210938 462.804688 288.175781 C 471.96875 283.117188 482.742188 281.449219 493.097656 283.53125 C 499.226562 284.78125 503.210938 290.734375 501.964844 296.863281 C 500.714844 302.933594 494.703125 306.859375 488.691406 305.671875 C 483.453125 304.660156 478.21875 305.433594 473.753906 307.933594 C 472.027344 308.882812 470.183594 309.359375 468.339844 309.359375 " fill-opacity="1" fill-rule="nonzero"/><path fill="#2ea6d1" d="M 528.386719 371.3125 C 523.980469 371.3125 519.757812 368.691406 517.972656 364.410156 C 516.125 360.003906 514.101562 356.078125 511.960938 352.683594 C 508.628906 347.449219 510.175781 340.484375 515.414062 337.152344 C 520.710938 333.761719 527.671875 335.308594 531.003906 340.605469 C 533.859375 345.066406 536.480469 350.183594 538.800781 355.71875 C 541.179688 361.433594 538.445312 368.097656 532.730469 370.480469 C 531.300781 371.074219 529.8125 371.3125 528.386719 371.3125 " fill-opacity="1" fill-rule="nonzero"/><path fill="#2ea6d1" d="M 523.03125 152.488281 C 519.101562 152.488281 515.292969 150.40625 513.210938 146.773438 C 510.234375 141.539062 504.996094 137.789062 498.929688 136.539062 C 492.796875 135.289062 488.871094 129.277344 490.179688 123.207031 C 491.429688 117.078125 497.5 113.210938 503.511719 114.460938 C 515.949219 117.019531 526.601562 124.757812 532.789062 135.585938 C 535.882812 141.003906 534.039062 147.90625 528.625 151 C 526.839844 152.011719 524.933594 152.488281 523.03125 152.488281 " fill-opacity="1" fill-rule="nonzero"/><path fill="#2ea6d1" d="M 527.613281 214.082031 C 526.125 214.082031 524.636719 213.785156 523.148438 213.128906 C 510.652344 207.773438 499.582031 198.074219 491.964844 185.753906 C 488.691406 180.457031 490.359375 173.496094 495.65625 170.222656 C 501.011719 166.949219 507.914062 168.617188 511.1875 173.914062 C 516.304688 182.183594 523.921875 188.910156 532.074219 192.421875 C 537.789062 194.859375 540.464844 201.527344 537.96875 207.238281 C 536.183594 211.523438 532.015625 214.082031 527.613281 214.082031 " fill-opacity="1" fill-rule="nonzero"/><path fill="#2ea6d1" d="M 508.09375 220.570312 C 507.617188 220.570312 507.140625 220.570312 506.605469 220.511719 C 500.414062 219.675781 496.070312 213.964844 496.90625 207.773438 C 497.796875 200.929688 499.703125 194.445312 502.4375 188.492188 C 505.058594 182.839844 511.722656 180.339844 517.4375 182.957031 C 523.089844 185.578125 525.53125 192.300781 522.96875 197.957031 C 521.125 201.882812 519.875 206.167969 519.28125 210.808594 C 518.507812 216.464844 513.6875 220.570312 508.09375 220.570312 " fill-opacity="1" fill-rule="nonzero"/><g clip-path="url(#9f032c141c)"><path fill="#2ea6d1" d="M 599.917969 427.964844 C 575.339844 427.964844 555.34375 406.601562 555.34375 380.296875 C 555.34375 374.109375 560.402344 369.050781 566.652344 369.050781 C 572.902344 369.050781 577.898438 374.109375 577.898438 380.296875 C 577.898438 394.164062 587.777344 405.410156 599.917969 405.410156 C 607.417969 405.410156 614.4375 401.007812 618.367188 393.984375 C 619.972656 391.070312 622.769531 389.046875 625.984375 388.390625 C 629.316406 387.796875 632.648438 388.511719 635.207031 390.59375 C 638.660156 393.269531 642.765625 394.640625 647.347656 394.640625 C 657.644531 394.640625 666.691406 386.308594 668.773438 374.824219 C 669.785156 369.46875 674.425781 365.597656 679.902344 365.597656 L 682.222656 365.597656 C 694.304688 365.597656 704.183594 354.351562 704.183594 340.542969 C 704.183594 338.878906 703.886719 337.152344 703.585938 335.484375 C 702.933594 331.796875 704.242188 328.046875 706.980469 325.429688 C 711.917969 320.726562 714.894531 313.527344 714.894531 306.085938 C 714.894531 297.21875 710.550781 288.886719 703.824219 284.722656 C 701.207031 283.117188 699.363281 280.496094 698.707031 277.460938 C 698.054688 274.425781 698.707031 271.273438 700.433594 268.714844 C 703.585938 264.132812 705.3125 258.65625 705.3125 253.300781 C 705.3125 243.660156 700.136719 234.4375 692.339844 230.390625 C 686.984375 227.652344 684.722656 221.164062 687.222656 215.691406 C 689.125 211.644531 690.019531 207.597656 690.019531 203.550781 C 690.019531 190.753906 681.507812 180.101562 670.203125 178.792969 C 667.105469 178.496094 664.308594 176.886719 662.464844 174.386719 C 660.621094 171.949219 659.847656 168.792969 660.324219 165.757812 C 660.679688 163.558594 660.976562 162.425781 660.976562 161.117188 C 660.976562 147.25 651.097656 136.003906 638.957031 136.003906 C 637.46875 136.003906 635.921875 136.300781 634.671875 136.597656 C 628.601562 137.789062 622.710938 133.921875 621.402344 127.851562 C 619.023438 116.839844 610.035156 108.867188 599.917969 108.867188 C 587.777344 108.867188 577.898438 120.113281 577.898438 133.921875 C 577.898438 140.167969 572.902344 145.226562 566.652344 145.226562 C 560.402344 145.226562 555.34375 140.167969 555.34375 133.921875 C 555.34375 107.675781 575.339844 86.3125 599.917969 86.3125 C 617.296875 86.3125 633.066406 97.261719 640.328125 113.507812 C 663.65625 114.222656 682.519531 134.21875 683.472656 159.035156 C 700.671875 165.757812 712.574219 183.253906 712.574219 203.550781 C 712.574219 207.714844 712.097656 211.878906 711.027344 215.988281 C 721.5 224.914062 727.925781 238.71875 727.925781 253.300781 C 727.925781 259.726562 726.558594 266.214844 724.058594 272.285156 C 732.511719 280.972656 737.449219 293.171875 737.449219 306.085938 C 737.449219 317.691406 733.582031 328.761719 726.617188 337.390625 C 726.679688 338.460938 726.738281 339.472656 726.738281 340.542969 C 726.738281 364.527344 710.132812 384.402344 688.53125 387.675781 C 681.804688 405.234375 665.617188 417.253906 647.347656 417.253906 C 641.753906 417.253906 636.339844 416.183594 631.339844 414.160156 C 623.128906 422.847656 611.820312 427.964844 599.917969 427.964844 " fill-opacity="1" fill-rule="nonzero"/></g><path fill="#2ea6d1" d="M 697.457031 231.699219 C 695.433594 231.699219 693.351562 231.101562 691.445312 229.914062 C 684.601562 225.628906 676.390625 225.449219 669.429688 229.4375 C 664.011719 232.53125 657.109375 230.625 654.015625 225.210938 C 650.917969 219.796875 652.824219 212.890625 658.238281 209.796875 C 672.523438 201.644531 689.484375 202 703.46875 210.867188 C 708.765625 214.140625 710.371094 221.105469 707.039062 226.402344 C 704.898438 229.792969 701.207031 231.699219 697.457031 231.699219 " fill-opacity="1" fill-rule="nonzero"/><path fill="#2ea6d1" d="M 679.902344 388.152344 C 679.367188 388.152344 678.769531 388.152344 678.234375 388.035156 C 666.570312 386.308594 656.277344 380.179688 649.3125 370.777344 C 642.351562 361.375 639.433594 349.769531 641.160156 338.105469 C 642.113281 331.914062 647.765625 327.691406 654.015625 328.582031 C 660.144531 329.476562 664.429688 335.246094 663.535156 341.4375 C 661.75 353.28125 669.664062 363.933594 681.566406 365.71875 C 687.699219 366.609375 691.984375 372.382812 691.03125 378.511719 C 690.199219 384.167969 685.375 388.152344 679.902344 388.152344 " fill-opacity="1" fill-rule="nonzero"/><path fill="#2ea6d1" d="M 566.652344 328.878906 C 565.34375 328.878906 564.035156 328.640625 562.785156 328.164062 C 556.953125 326.023438 553.917969 319.597656 556.058594 313.703125 C 562.308594 296.445312 578.078125 284.960938 596.167969 284.484375 C 602.535156 284.484375 607.59375 289.246094 607.773438 295.433594 C 607.953125 301.683594 603.011719 306.859375 596.824219 307.039062 C 588.015625 307.277344 580.339844 312.929688 577.246094 321.441406 C 575.578125 326.023438 571.234375 328.878906 566.652344 328.878906 " fill-opacity="1" fill-rule="nonzero"/><path fill="#2ea6d1" d="M 640.863281 316.203125 C 636.519531 316.203125 632.351562 313.703125 630.507812 309.480469 C 628.007812 303.765625 630.625 297.101562 636.339844 294.601562 C 651.21875 288.113281 661.394531 274.070312 662.882812 257.941406 C 663.476562 251.753906 669.128906 247.347656 675.199219 247.765625 C 681.390625 248.359375 685.972656 253.894531 685.375 260.085938 C 683.054688 284.367188 667.761719 305.492188 645.386719 315.253906 C 643.898438 315.90625 642.351562 316.203125 640.863281 316.203125 " fill-opacity="1" fill-rule="nonzero"/><path fill="#2ea6d1" d="M 676.808594 309.71875 C 675.023438 309.71875 673.238281 309.300781 671.570312 308.410156 C 667.640625 306.324219 662.523438 305.671875 657.167969 306.503906 C 650.980469 307.515625 645.207031 303.289062 644.253906 297.101562 C 643.300781 290.972656 647.46875 285.199219 653.65625 284.246094 C 663.953125 282.640625 673.832031 284.066406 682.105469 288.472656 C 687.636719 291.386719 689.722656 298.171875 686.804688 303.707031 C 684.78125 307.515625 680.855469 309.71875 676.808594 309.71875 " fill-opacity="1" fill-rule="nonzero"/><path fill="#2ea6d1" d="M 610.273438 152.488281 C 608.191406 152.488281 606.167969 151.953125 604.324219 150.761719 C 599.027344 147.488281 597.359375 140.527344 600.632812 135.230469 C 607.238281 124.578125 618.011719 116.960938 630.148438 114.460938 C 636.21875 113.210938 642.230469 117.078125 643.480469 123.207031 C 644.789062 129.277344 640.863281 135.289062 634.734375 136.539062 C 628.664062 137.847656 623.246094 141.65625 619.855469 147.132812 C 617.710938 150.585938 614.023438 152.488281 610.273438 152.488281 " fill-opacity="1" fill-rule="nonzero"/><path fill="#2ea6d1" d="M 606.820312 229.734375 C 605.035156 229.734375 603.3125 229.378906 601.644531 228.484375 C 596.109375 225.628906 593.90625 218.84375 596.765625 213.308594 C 601.167969 204.738281 602.597656 194.742188 600.691406 185.042969 C 599.503906 178.910156 603.488281 173.019531 609.617188 171.828125 C 615.808594 170.578125 621.699219 174.625 622.890625 180.757812 C 625.6875 195.394531 623.542969 210.632812 616.820312 223.664062 C 614.855469 227.53125 610.867188 229.734375 606.820312 229.734375 " fill-opacity="1" fill-rule="nonzero"/><path fill="#2ea6d1" d="M 612.179688 212.179688 C 606.941406 212.179688 602.238281 208.488281 601.109375 203.191406 C 599.859375 197.121094 603.726562 191.113281 609.855469 189.863281 C 615.988281 188.550781 621.582031 186.351562 626.460938 183.253906 C 631.757812 179.984375 638.660156 181.589844 641.992188 186.828125 C 645.324219 192.121094 643.71875 199.085938 638.421875 202.417969 C 631.28125 206.882812 623.246094 210.09375 614.5 211.941406 C 613.726562 212.117188 612.890625 212.179688 612.179688 212.179688 " fill-opacity="1" fill-rule="nonzero"/><path fill="#2ea6d1" d="M 605.691406 371.3125 C 604.5 371.3125 603.3125 371.132812 602.121094 370.777344 C 596.167969 368.753906 593.015625 362.386719 594.980469 356.492188 C 596.941406 350.542969 599.800781 345.007812 603.429688 340.007812 C 607.058594 335.011719 614.140625 333.820312 619.199219 337.507812 C 624.257812 341.199219 625.328125 348.222656 621.699219 353.28125 C 619.4375 356.375 617.59375 359.945312 616.402344 363.574219 C 614.796875 368.335938 610.394531 371.3125 605.691406 371.3125 " fill-opacity="1" fill-rule="nonzero"/></svg>